<?xml version="1.0" encoding="utf-8"?>
<!-- Generator: Adobe Illustrator 23.0.3, SVG Export Plug-In . SVG Version: 6.00 Build 0)  -->
<svg version="1.1" id="Layer_1" xmlns="http://www.w3.org/2000/svg" xmlns:xlink="http://www.w3.org/1999/xlink" x="0px" y="0px"
	 viewBox="0 0 17.7 18.4" style="enable-background:new 0 0 17.7 18.4;" xml:space="preserve">
<style type="text/css">
	.st0{fill:#4EBE99;stroke:#4EBE99;stroke-width:0.5535;stroke-miterlimit:10;}
	.st1{fill:#111111;stroke:#FFFFFF;stroke-width:0.5;stroke-miterlimit:10;}
	.st2{fill:#4A4A4A;stroke:#FFFFFF;stroke-width:0.5;stroke-miterlimit:10;}
	.st3{fill:none;stroke:#F5F6F6;stroke-width:0.801;stroke-miterlimit:10;}
</style>
<g>
	<g>
		<polyline class="st0" points="2.1,9.7 8.8,3 15.6,9.7 		"/>
		<path class="st0" d="M13.8,12.7c0.9-0.9,1.4-1.9,1.8-3c0.7-2.4,0.1-5.1-1.8-7C11.1,0,6.6,0,3.9,2.7C2,4.6,1.4,7.3,2.1,9.7
			c0.3,1.1,0.9,2.1,1.8,3l5,5L13.8,12.7z"/>
	</g>
	<g>
		<polyline class="st1" points="2.7,9.7 8.8,3.6 14.9,9.7 		"/>
		<path class="st2" d="M13.3,12.3c0.8-0.8,1.3-1.7,1.6-2.7C15.5,7.4,15,5,13.3,3.3c-2.5-2.5-6.5-2.5-9,0C2.6,5,2.1,7.4,2.7,9.6
			c0.3,1,0.8,1.9,1.6,2.7l4.5,4.5L13.3,12.3z"/>
	</g>
	<g>
		<line class="st3" x1="12" y1="4.8" x2="5.7" y2="11.2"/>
		<line class="st3" x1="12" y1="11.2" x2="5.7" y2="4.8"/>
	</g>
</g>
</svg>
