<?xml version="1.0" encoding="utf-8"?>
<!-- Generator: Adobe Illustrator 23.0.3, SVG Export Plug-In . SVG Version: 6.00 Build 0)  -->
<svg version="1.1"
	 id="Layer_1" xmlns:dc="http://purl.org/dc/elements/1.1/" xmlns:mapsvg="http://mapsvg.com" xmlns:rdf="http://www.w3.org/1999/02/22-rdf-syntax-ns#" xmlns:svg="http://www.w3.org/2000/svg"
	 xmlns="http://www.w3.org/2000/svg" xmlns:xlink="http://www.w3.org/1999/xlink" x="0px" y="0px" viewBox="0 0 593.4 302.4"
	 style="enable-background:new 0 0 593.4 302.4;" xml:space="preserve">
<style type="text/css">
	.st0{fill:#F5F5F5;stroke:#0F0F0F;stroke-width:0.5;stroke-miterlimit:10;}
	.st1{fill:none;}
	.st2{fill:#02D8A2;stroke:#02D8A2;stroke-width:0.5535;stroke-miterlimit:10;}
	.st3{fill:#0F0F0F;stroke:#FFFFFF;stroke-width:0.5;stroke-miterlimit:10;}
	.st4{fill:#494949;stroke:#FFFFFF;stroke-width:0.5;stroke-miterlimit:10;}
	.st5{fill:#FFFFFF;stroke:#0F0F0F;stroke-width:0.5;stroke-miterlimit:10;}
	.st6{fill:#9E9E9E;stroke:#FFFFFF;stroke-width:0.5;stroke-miterlimit:10;}
	.st7{fill:#FF9D00;}
	.st8{fill:none;stroke:#F5F5F5;stroke-width:0.801;stroke-miterlimit:10;}
	.st9{fill:none;stroke:#0F0F0F;stroke-width:0.801;stroke-miterlimit:10;}
	.st10{fill:none;stroke:#F5F5F5;stroke-width:0.8014;stroke-miterlimit:10;}
</style>
<path id="US-AL" class="st0" d="M394.7,186l0.3,1.5l0.3,1.5l0.3,1.5l0.3,1.5l0.3,1.5l0.3,1.5l0.3,1.5l0.3,1.5l0.3,1.4l0.3,1.4
	l0.3,1.4l0.3,1.4l0.3,1.4l0.3,1.4l0.3,1.4l0.3,1.4l0.2,0.7l0.2,1l1.3,3.1l0.4,1.3l-0.1,0.5l0.2,0.5l0.4,0.4l-0.1,0.4l-0.6,0.5
	l-0.4,0.6l-0.3,1.1l0,0l-0.6,1.9v1.1l0.5,1.6l0,0l0.1,0.7l-0.4,3l0.2,2l0.6,1.3h-3h-3h-3h-3h-3h-3h-3h-3l-0.1,0.8l0.1,0.8l0.3,0.7
	l1.4,1.3l0.1,0.3l-0.2,1v0.7l-0.2,0.4l-0.3,0.3l-0.1,0.4l-0.2,0.1l-1,1.1l-3.6,0.4l0.2-0.3h0.8l1.1-0.4l-0.2-0.6l-0.4-0.7l-0.4-0.1
	l-0.3-0.4v-1.2l-0.2-0.7l-0.6-0.7l-0.2,0.1l-0.4,1.3l-0.4,1.6l-0.2,0.5H371l-1-0.1h-0.5l-0.1-2.2l-0.1-2l-0.1-2l-0.1-2l-0.1-2.1
	l-1-2.1l-0.1-2.1l-0.1-2.1l0.2-2l0.2-2l0.2-2l0.2-2l0.2-2.1l0.2-2.1l0.2-2.1l0.2-2.1l0.2-2.1l0.2-2.1l0.2-2.1l0.2-2.1l0.2-2.1
	l0.2-2.1l0.2-2.1l0.2-2.1l0.1-0.5V187v-0.3l-0.8-0.8l-0.2-0.2l-0.1-0.1h0.1h1.5h1.5h1.5h1.5h1.5h1.5h1.5h1.5h1.5h1.5h1.5h1.5h1.5
	h1.5h1.5L394.7,186L394.7,186z M371.7,238.9l-0.8,0.2h-1.2l-0.3-0.1l0.5-0.2l1.5-0.2L371.7,238.9L371.7,238.9z"/>
<path id="US-AR" class="st0" d="M356.3,174.5v0.2l0.2,0.5v0.3l-0.1,0.2l-0.3,0.1l-0.2,0.1v0.2v0.1v0.2v0.2l-0.2,0.3l-1.1,0.6
	l-0.5,0.8l0.2,1l-0.4,1l-0.9,1l-0.4,1.1l0.1,1.3l-0.5,1l-1.1,0.8l-0.3,0.5l0,0v0.4l0.1,0.3l-0.4,0.5l-0.9,0.5l-0.5,0.5l-0.1,0.5
	l-0.2,0.3l-0.4,0.1l-0.2,0.8l-0.2,1.8l-0.5,1l-0.8,0.3l-0.4,0.4l-0.1,0.5l-0.5,0.6l-0.9,0.7l-0.3,0.7l0.3,0.7l-0.1,0.3l-0.3,0.2
	l-0.9,0.3l-0.2,0.2l-0.1,0.2l0.2,0.3l0.1,0.5l-0.1,0.8l-0.2,0.3L343,200l-0.8,0.6l-0.2,0.5l0.3,0.3v0.3l-0.4,0.4l0.1,0.4l0.1,0.3
	l0.4,0.3l0.1,0.7l-0.3,0.9v0.7l0.4,0.6l0.1,0.3l-0.4,2v0.3h-1.8h-1.7h-1.7h-1.7h-1.7h-1.7h-1.7H329h-1.7h-1.7H324h-1.7h-1.7h-1.7
	h-1.7h-1.7v-1.5v-1.5v-1.5v-1.5l-0.5-0.3l-0.9-0.1l-0.5,0.1l-0.5-0.1l-0.3,0.3h-0.2l-0.2-0.1l-0.1-0.2l-0.4-0.2l-0.5-0.5v-1.2v-1.2
	v-1.2v-1.2v-1.2v-1.2v-1.2v-1.2v-1.2v-1.2v-1.2v-1.2v-1.2v-1.3v-1.3v-1.2l-0.2-1.6l-0.2-1.6l-0.2-1.6l-0.2-1.6l-0.2-1.6l-0.2-1.6
	l-0.2-1.6l-0.2-1.6h2.6h2.6h2.6h2.6h2.6h2.6h2.6h2.6h2.6h2.6h2.6h2.6h2.6h2.6h2.6h2.6l0.4,0.9l0.4,0.6l0.1,0.4l-0.1,0.4l-0.7,0.9
	l-0.6,0.4l-0.3,0.5l-0.5,0.4l-0.7,1.2h1.5h1.5h1.5L356.3,174.5z"/>
<path id="US-AZ" class="st0" d="M174.2,162.9v4.2v4.1v4.1v4.1v4.1v4.1v4v4v4v4v4v4v3.9v3.9v3.9v3.9h-2.1h-3.3h-3.3h-3.3h-3.3h-3.3
	l-4.5-1.6l-4.5-1.6l-4.5-1.6l-4.5-1.6l-4.5-1.6l-4.5-1.6l-4.5-1.6l-4.5-1.6l0.5-0.6l0.6-1.7V212l0,0l1.3-0.1l0.6-0.4l0.4-0.8
	l0.1-0.8l-0.2-0.8l-0.6-0.6l-0.9-0.4l-0.5-1.1l-0.1-1.8l0.2-1l0.5-0.1l0.5-0.4l0.4-0.7l0.3-0.8l0.2-0.9v-1.1l-0.1-1.3l0.8-1.7l0.8-1
	l1.6-1.3l0.4-0.4v-0.3l0,0l-0.3-0.4l-1.4-0.9l-0.6-0.6v-0.6l0,0l-0.2-0.6l-1.5-2.3l-0.5-1.3v-1v-0.4l0.2-4.1l-0.5-1.4l-0.1-0.8
	l0.2-1v-0.6l-0.3-0.5l-0.1-1v-1.2l-0.4-0.8l-0.1-0.3l0.2-0.8l0.4-0.4l0.7-0.3l0.8-0.1l0.9,0.1l0.7,0.4l0.5,0.7l0.5,0.3h0.5l0.6-0.5
	l0.5-1.2l0.2-0.1v-5v-4.6h2.9h2.9h2.9h2.9h2.9h2.9h2.9h2.9h2.9h2.9h2.9h2.9h2.9h2.9h2.9L174.2,162.9z"/>
<path id="US-CA" class="st0" d="M71.1,102.1v2.4v2.4v2.3v2.3v2.3v2.3v2.3v2.3v2.3v2.3v2.3v2.3v2.3v2.3v2.3v2.3l2.2,2l2.2,2l2.2,2
	l2.2,2l2.2,2l2.2,2l2.2,1.9l2.2,1.9l1.7,1.6l1.7,1.6l1.7,1.6l1.7,1.6l1.7,1.6l1.7,1.6l1.7,1.6l1.7,1.6l2.4,2.3l2.4,2.3l2.4,2.3
	l2.4,2.3l2.4,2.3l2.4,2.3l2.4,2.3l2.6,2.4v1l0.5,1.3l1.5,2.3l0.2,0.6l0,0l0.1,0.6l0.6,0.6l1.4,0.9l0.3,0.4l0,0v0.3l-0.4,0.4
	l-1.6,1.3l-0.8,1l-0.8,1.7l0.1,1.3v1.1l-0.2,0.9l-0.3,0.8l-0.4,0.7l-0.5,0.4l-0.5,0.1l-0.2,1l0.1,1.8l0.5,1.1l0.9,0.4l0.6,0.6
	l0.2,0.8l-0.1,0.8l-0.4,0.8l-0.6,0.4l-1.3,0.1l0,0v0.1l-1.1,0.1l-2.7,0.2l-2.7,0.2l-2.7,0.2l-2.7,0.2l-2.7,0.2l-2.7,0.2l-2.7,0.2
	l-2.7,0.2v-0.1l-0.1-1.2l-0.4-0.4l-0.6,0.3l-0.3-1.6l0.5-0.4l-0.1-0.7l-0.5-1.8l-1.4-2.2l-3-2.7l-1.5-0.9l-1.2-1.2l-0.8-0.3l-1-0.1
	l-0.3,0.5l-1.1-0.4l0.2-1.3l-1.1-1.8l-0.9-0.2l-2.2,0.1l-2.9-1l-0.9-0.6l-0.3-1.1l-1.4-0.9l-1.8-0.9l-1,0.2l-1.3-0.1l-1.9-0.7
	l-1.1-0.1l-2.1,0.2l-0.8-0.1l-0.7-0.8l-0.8-0.4l0.2-1l-0.1-0.9l0.1-0.7l-0.4-1.6l0.3-1.5l-0.2-0.5l-0.5-0.4l-1.4-0.6l-0.3-0.8l0.2-1
	l-0.4-0.7l-1.2-0.6l-1.1-1.5l-1.4-0.8l-0.6-1.3l-0.8-0.8l-0.3-0.7l-1.9-2.6l-2-2.1l-0.3-1.2l-0.1-1.6l0.8-1l0.4-0.9v-0.8l-0.1-0.6
	l-0.7-1l-2.7-0.6l-2.2-2.5l-0.1-2l-0.8-2v-1.3l-0.1-1.4l0.7-0.3l0.6,0.1l-0.1,0.6l0.2,1l0.7,0.8l0.7,0.3l0.6,0.7l0.4,0.2h0.5
	l-0.3-0.5l-0.3-0.3l-0.3-1l-0.6-1.3l-0.7-0.7l-0.3-1.3l-0.3-0.3l-0.2-0.5l0.7-0.6l0.9-0.4l1.2-0.1l3.5,0.2l0.7-0.3l0.6,0.1h0.5
	l-0.9-0.3l-0.5,0.1l-0.6-0.1l-1.2,0.1l-0.5-0.1l-0.6-0.4h-0.4l-1.2,0.7l-0.5-0.1l-1.2-0.8l-0.5-0.1l-0.8,0.4l-0.1,1.8l0.3,1.4
	l-0.5,0.1l-0.6-0.6l-0.9-0.3l-0.8-0.5l-1.1-1l-0.6-0.3L43,151v-0.4l0.3-0.9l-0.1-1.5l1,1.2l-0.3-0.9l-0.7-1l-0.6-0.3l-0.7-1.7
	l-1.6-1l-1.3-1.7l-2.6-2.8l-0.2-2.5l-1-3.1l0.4-1.8v-1.3l-0.5-1.9l-0.5-1l-2.1-2.9l-2-1.9l-0.3-1.5l-0.1-1.5l0.4-1.3l0.4-1.4
	l0.3-0.4l0.1,0.2l-0.1,0.3l0.3,0.1l0.1-0.6l0.2-0.3h-0.3V117l0.2-0.4l0.6-1.8l-0.1-2.3l0.7-2.8v-0.9l-0.4-2l-0.4-1.2l-0.8-0.9
	l0.3-1.3v-1.2l-0.2-0.2H34h2.5H39h2.5H44h2.5H49h2.5H54h2.5H59h2.5H64h2.5H69L71.1,102.1L71.1,102.1z M72.2,196.5l1.9,0.6l1-0.3
	l0.2,0.3l-0.1,0.2l-2.3,0.4l-0.7-0.3l-0.1-0.4l-0.2-0.4L72.2,196.5z M68.2,197.1h-0.5H67l0.3-0.3l0.4-0.2l0.1,0.1L68.2,197.1
	L68.2,197.1z M70.7,198.3l-0.7,0.2l-0.5-0.2l-0.8-1.1l1.7-0.1l0.7,0.5l0.1,0.1L70.7,198.3L70.7,198.3z M86.7,204.3l0.5,0.8l-0.7-0.1
	h-0.7l-0.2-0.5l-0.2-0.6l-0.1-0.2l-0.5-0.1v-0.1l-0.1-0.3l0.1-0.2l1.5,0.7L86.7,204.3L86.7,204.3z M76.4,206.2H76l-0.6-0.1l-0.3-0.6
	h0.5l0.4,0.1l0.3,0.5L76.4,206.2L76.4,206.2z M86.7,210.6l-0.5,0.1l-0.6-0.2l-0.5-1.1l-0.6-0.8l0.3-0.2l0.5,0.8l1.2,1.2L86.7,210.6
	L86.7,210.6z"/>
<path id="US-CO" class="st0" d="M240.3,126.9v2.3v2.3v2.3v2.3v2.3v2.3v2.3v2.3v2.2v2.2v2.2v2.2v2.2v2.2v2.2v2.2H238h-2.3h-2.3h-2.3
	h-3.6H224h-3.5h-3.6h-3.6h-3.5h-3.6h-3.6h-3.5h-3.6H192h-3.6h-3.5h-3.6h-3.6h-3.5V160v-3v-3v-3v-3v-3v-3v-3v-3v-3v-3v-3v-3.1v-3.1
	v-3.1v-3.1h3h3h3h3h3h3h3h3h3h3h3h3h3h3h3h3h2.3h2.3h2.3h2.3h2.3h2.3h2.3h2.3v1.5v1.5v1.5v1.5v1.5v1.5v1.5L240.3,126.9z"/>
<path id="US-CT" class="st0" d="M524.9,101.9v0.7v1v0.7v0.9v1.1v1v0.9v0.5v0.8l-0.2,0.3l-0.1,0.7l-0.8-0.1l-1.4,0.2l-1.8,0.4l-1-0.3
	l-1,0.5l-3.5,0.1l-0.7-0.2l-0.9,0.8l-1.5,0.5l-3.8,1.9l-0.4,0.4l-0.5-0.8l-0.4-0.6l0.8-0.5l0.6-0.4l0.5-0.3l0.4-0.2l-0.3-0.5
	l-0.3-0.5l0.1-1.2l0.1-1.2l0.1-1.2l0.1-1.2l0.1-1.2l0.1-1.2l0.1-1.2l0.1-1.2h0.8h0.8h0.8h0.8h0.8h0.8h0.8h0.8v0.3h0.4v-0.3h1.1h1.1
	h1.1h1.1h1.1h1.1h1.1h1.1L524.9,101.9z"/>
<path id="US-DC" class="st0" d="M475.6,140.4l-0.2-0.3l-0.5-0.3l-0.2-0.1l0.8-0.8l0.5,0.7l0.5,0.8l-0.8,1L475.6,140.4z"/>
<path id="US-DE" class="st0" d="M490.8,129.2l-0.4,0.4l-0.3,0.8l-0.8,0.9l0.1,0.6l0.1,0.4l-0.1,0.9l0.5,0.9l1,1.5l0.2,2.3l0.8,1.5
	l1.2,1.8l0.9,0.5v0.7l-0.4,1.1L493,144l0.7-0.1l0.4,0.3l0.3,0.9v0.6h-1h-2.1h-2.1h-1l0,0l0,0l0,0l0,0l0,0l0,0l0,0l0,0l-0.1-1.9
	l-0.1-1.9l-0.1-1.9l-0.1-1.9l-0.1-1.9l-0.1-1.9l-0.1-1.9l-0.1-1.9l0.7-1l0.3-0.3l0.4-0.2h1.2L490.8,129.2z"/>
<path id="US-FL" class="st0" d="M433.5,233.7l0.4,1l0.7,4l0.5,1.4l0.8,3.8l1.4,3.6l1.9,4.4l3.2,5.3l0.4,0.8l-0.4,0.6l-0.1,0.7v1
	l0.1,1l0.4,1.2l0.7,1.8l-0.4-0.4l-1-2.6l-0.1-1.5l0.2-2.2H442l-0.2,0.7l-0.1,0.8l-0.3,0.3l-0.4-1.3v-0.6l0.4-0.7l-0.1-0.2l-0.6-0.3
	l-0.1-0.5l0.1-0.5l-0.3-0.3h-0.3l0.2,1.3l0.3,0.8l0.4,1.9l0.6,1.2l0.3,1l4,10.3l0.9,1.3l0.3,0.9l0.4,2l0.1,2.5l-0.7,4.6l-0.2,3.1
	l-0.1-0.1l-0.1-0.3h-0.2l-0.6,1.4l-0.8,1.3l-0.3,2l-0.4,1l-1.1,1h-0.7l-1.7,0.8l-1.2-0.2l-1.4,0.4h-0.9l-0.5-0.9l0.1-0.4l0.2-0.4
	l0.4-0.1l1.3,1l0.2-0.4l-0.4-0.5l-0.7-0.3l-0.5-0.3l-1.1-2.2l-1.1-1.5l-0.2-1l-1.9-0.6l-1.4-1l-0.9-1.7l-0.5-3l-0.6-0.3l-0.3-0.2
	l0.6-1.1l0.6-0.9l-0.5,0.2l-0.4,0.3l-0.5,0.8l-0.3,0.1l-0.3-0.1l-0.4-1.6l0.1-2l0.5-0.7h-0.8l-0.8,0.3l0.1,0.7l-0.1,0.4l-0.6-0.1
	l-0.4-0.2l-0.6-0.7l-0.8-1.3l-1.7-3.6l-0.3-0.5l-0.6-0.5l0.3-0.2l0.5-0.1l1.1-1.6l0.8-1l0.3-0.7V265l-0.4-0.4l-0.5,0.4l-0.2-0.1
	l-0.6-0.8l-0.5-0.2l-0.4,0.2l0.4,0.7l0.3,0.3l-0.1,1l-0.1,0.3l-0.3,0.3l-0.5-0.2l-0.3,0.3l-0.3-0.3l-0.3-0.5l-0.3-0.7l0.9-4.2
	l0.8-2.7l0.1-3l0.1-0.5l-0.1-0.8l-1.1-1.8l-4.9-4.3l-3.8-5.1l-3.3-1.9l-2.5,0.4l-0.4,0.4l-0.2,0.5l0.2,0.6l-0.2,0.2h-0.7l-0.9,0.1
	l-2.4,1.3h-0.8l-0.8,0.3l-0.6,0.3l-1.5,0.1l-1.3,0.3l-0.5-0.2l-0.3-0.8v-0.8l0.3,0.6l0.4,0.5l0.2-0.2l0.1-0.4l-0.4-0.8l-1.4-1.1
	l-1.6-1.6h0.5l0.1-0.3l-0.5-0.4l0.2-0.5l0.3-0.5l-0.7,0.1l-0.6,0.4v0.5l-0.1,0.4h-0.3l-0.6-0.5l-3-1.3l-2.6-0.7l2-0.3l1.1,0.3
	l-0.1-0.4l-0.3-0.3l-0.9-0.3l-1.1,0.1l-0.7-0.2l-0.7,0.3l-0.8,0.5l-0.7,0.2l-2.7,0.3l-2.2,0.4l0.3-0.4l0.4-0.2l1.3-0.4l0.2-0.8
	l-0.3-0.7l-0.3,0.2l-0.4,0.6l-0.4-0.4h-0.5l-0.1,0.9l-0.6,0.6l-0.3,0.6l-1.8,0.5l-0.2-0.2l0.5-0.6v-0.3l-0.4,0.2l0.1-0.4l0.3-0.3
	l0.2-0.4v-0.7l0.2-1l-0.1-0.3l-1.4-1.3l-0.3-0.7l-0.1-0.8l0.1-0.8h3h3h3h3h3h3h3h3l0.4,0.9l0.8,1.8v0.4l0.9,0.1l1.5,0.1l1.5,0.1
	l1.5,0.1l1.5,0.1l1.5,0.1l1.5,0.1l1.5,0.1l1.5,0.1l1.5,0.1l1.5,0.1l1.5,0.1l1.5,0.1l1.5,0.1l1.5,0.1l1.5,0.1l1.5,0.1v0.4l0.3,0.6
	l0.1,0.6l0.1,0.3l0.3,0.2h0.5l0.5-0.4l0.3-0.8l0.1-0.9l-0.2-1v-0.9l0.2-0.5l0.3-0.1l0.2-0.3l0.2-0.1l0.5,0.1l2,0.7L433.5,233.7
	L433.5,233.7z M401.5,245.5l-1,0.4l-1-0.3h0.6l0.5,0.1l1.2-0.6l0.6-0.4l0.7-0.2L401.5,245.5z M445.9,270.7l0.2,0.8l-0.9-1.8
	l-1.1-2.8l-0.6-2.2l0.4,0.6l0.4,1.2L445.9,270.7L445.9,270.7z M428.1,278.3v0.6l-0.5-1l-0.3-1.1l0.5,0.4L428.1,278.3L428.1,278.3z
	 M428.5,279.3l-0.3,0.3l-0.7-0.2l-0.4-0.4l-0.2-0.7l0.6,0.7l0.2,0.2L428.5,279.3L428.5,279.3z M444.1,293l-1.9,1.9l0.2-0.5l0.7-1
	l0.2-0.5l0.5-0.3l0.5-0.6v-0.7l0.7-0.5l0.2-0.1L444.1,293L444.1,293z M441.7,295.4h-0.3l0.4-0.4h0.1L441.7,295.4z M439.9,296.5h-0.2
	l0.1-0.2l0.4-0.3l0.1,0.1v0.2L439.9,296.5z M437.8,297.4l-0.4,0.2l-0.5-0.2l0.5-0.2l1.5-0.3l-0.5,0.3L437.8,297.4z M435.1,298
	l-0.3,0.2l-0.1-0.1v-0.3l-0.4-0.7v-0.2l0.9,0.7v0.2L435.1,298L435.1,298z M432.9,298.6l-0.6,0.1l0.5-0.4l0.2-0.6l0.3,0.5v0.3
	L432.9,298.6L432.9,298.6z M430.9,299.1h-0.2v-0.2l0.4-0.2h0.3v0.2L430.9,299.1L430.9,299.1z"/>
<path id="US-GA" class="st0" d="M439.5,219.4l-0.5,0.9l-1.2,0.6h-0.3l-0.3,0.2l0.2,0.4l0.3,0.3v0.3l-0.3,0.4l-0.6,0.1l-0.3,0.4
	l0.1,0.4l0.2,0.2v0.4l-0.7,0.4l-0.2,0.4l0.3,0.1l0.3-0.1l0.2,0.1l-0.4,0.7l-0.4,0.4l-0.3,0.7l-0.8,0.2v0.2l0.5,0.2l0.4,0.5l-0.7,1
	l-0.5-0.1l-0.3-0.2l-0.2,0.8l0.1,0.4l-0.2,0.9l-0.3,1l-0.2,0.4v0.8l0.1,0.8l-1.6-0.1l-2-0.7l-0.5-0.1l-0.2,0.1l-0.2,0.3l-0.3,0.1
	l-0.2,0.5v0.9l0.2,1l-0.1,0.9l-0.3,0.8l-0.5,0.4h-0.5l-0.3-0.2l-0.1-0.3l-0.1-0.6l-0.3-0.6v-0.4l-1.5-0.1l-1.5-0.1l-1.5-0.1
	l-1.5-0.1l-1.5-0.1l-1.5-0.1l-1.5-0.1l-1.5-0.1l-1.5-0.1l-1.5-0.1l-1.5-0.1l-1.5-0.1l-1.5-0.1l-1.5-0.1l-1.5-0.1l-1.5-0.1l-0.9-0.1
	v-0.4l-0.8-1.8l-0.4-0.9l-0.6-1.3l-0.2-2l0.4-3l-0.1-0.7l0,0l-0.5-1.6v-1.1l0.6-1.9l0,0l0.3-1.1l0.4-0.6l0.6-0.5l0.1-0.4l-0.4-0.4
	l-0.2-0.5l0.1-0.5l-0.4-1.3l-1.3-3.1l-0.2-1l-0.2-0.7l-0.3-1.4l-0.3-1.4l-0.3-1.4l-0.3-1.4l-0.3-1.4l-0.3-1.4l0-1.6l-0.3-1.4
	l-0.3-1.5l-0.3-1.5l-0.3-1.5l-0.3-1.5l-0.3-1.5l-0.3-1.5l-0.3-1.5l-0.3-1.5h3.1h3.1h3.1h3.1h2.8h2.8h2.8h2.8h-0.1l-0.5,0.8l-1.4,1.5
	l-0.4,1.1l1.8,1.2l0,0l1.1,1l0.7,0.4l0.7,0.1l0.5,0.3l0.3,0.8l0,0l2.2,4l0,0l2.2,2l0.9,1l0.5,1l1.9,1.6l0.7,0.8v0.6l0.2,0.5l0.4,0.3
	l0.4,0.6l0.4,0.9l0.8,0.8l1.1,0.7l0.8,1.5l0.5,2.3l0.5,1.3l0.8,0.6l1.1,2l0.4,1.2v1l0.6,0.8L439.5,219.4L439.5,219.4z M434.3,231.1
	l-0.4,2.7l-0.2-0.9V232l0.3-0.5L434.3,231.1z"/>
<path id="US-HI" class="st1" d="M-468.9,260.9h-0.2v-0.1l0.2-0.1h0.2L-468.9,260.9L-468.9,260.9L-468.9,260.9z M-299.5,325.7
	l-0.8,0.6l-0.5-0.2l-0.9-0.1l-0.3-0.4l-1-0.4l-0.4-0.5l0.6-1l1.4-0.8h2.1l0.5,0.7v0.5l-0.3,0.5l-0.1,0.8L-299.5,325.7L-299.5,325.7z
	 M-307.1,326.7l-0.2,0.5l-0.3-0.1l-0.1-0.4l0.2-0.5l0.5-0.5l0.6-0.7l0.5,0.1l-0.3,0.5v0.5l-0.7,0.3L-307.1,326.7z M-284.7,330.5
	l0.3,0.1l0.4-0.1l0.1,0.8l0.5,0.4l0.2,0.3l-0.5,0.3l-1,0.1l-0.5-0.2l-0.5-0.5l-0.5,0.1l-0.1-0.4l-0.1-0.1l-0.4,0.1l0.3,0.5h-0.9
	l-0.3-0.1l-0.3-0.6l-1-1.1v-0.4l-0.3-0.5l1.4-0.2l1-0.9l0.5-0.1l1,1.5v0.4l0.2,0.4L-284.7,330.5L-284.7,330.5z M-279.2,333l2,0.3
	l0.5-0.1l0.3,0.2l1.6,0.1l0.3,0.1l-0.3,0.5l-1.1,0.5l-1.5-0.4l-2.5-0.2l0.1-0.4l0.2-0.3v-0.5L-279.2,333L-279.2,333z M-272.3,335.8
	l0.2,0.2l1-0.3l0.7-0.1l1.2,0.7l0.4,0.5l0.8,0.5l0.3,0.3l-0.2,0.4l-0.9,0.7l-1.2,0.2l-0.7,0.3l-0.9-0.1l-0.3-0.1l-0.1-0.9l-0.3-1
	l-0.6,0.1l-0.7-0.3l-0.7-0.8l-0.1-0.5l0.4-0.8l0.7-0.1l0.5,0.4L-272.3,335.8L-272.3,335.8z M-275.8,337.4l-0.6,0.3l-0.6-0.1
	l-0.1-0.7l-0.6-0.9l1-0.2l0.6,0.3l0.3,0.3l0.4,0.5L-275.8,337.4L-275.8,337.4z M-263.8,354.9l-0.4,0.5h-0.5l-1.9-1l-0.2-0.5l0.1-2.5
	l-0.7-2.1l-0.8-1.6l0.6-0.8l0.8-0.6l0.8-1.2l-0.7-1.5l0.2-0.9l0.4-0.2l2,1.1l4,1.7l1.1,1.2l0.2,1.3l0.7,0.2l0.3,0.9l1.1,0.8l0.3,0.4
	l-0.4,0.7l-1.9,1.3l-2.4,0.6l-2.1,1.5L-263.8,354.9L-263.8,354.9z"/>
<path id="US-IA" class="st0" d="M347.4,95.6l0.6,0.9l1,0.8l0.6,0.7l0.1,0.7l0.6,0.7l1.1,0.8l0.6,0.7l0.2,0.6v0.9l-0.2,1.2l-0.4,0.9
	l-0.5,0.5l-0.4,0.8l-0.3,1l-0.8,0.9l-1.4,0.8l-1.6,0.6l-1.7,0.3l-1,0.7l-0.3,1.1l0.1,0.9l0.6,0.8l0.3,0.8l0.1,0.8l-0.4,1.4l-1,1.9
	l-1.1,1.2l-1.2,0.6l-0.5,0.8l0.1,1.1l-0.1,0.6l-0.5,0.2l-0.8-0.7l-0.2-0.5l-0.7-0.5l-0.1-0.3l-0.5-0.3l-0.5-0.9h-2.4h-2.4H330h-2.4
	h-2.4h-2.4h-2.4H318h-2.4h-2.4h-2.4h-2.4H306h-2.4h-2.4h-2.3l-0.6-0.9l-0.3-0.8l0.2-0.4v-1.4l-0.1-2.4l-0.2-1.3l-0.3-0.3v-0.4
	l0.3-0.5l-0.1-0.4l-0.4-0.2l-0.1-0.5l0.2-0.7l-0.1-0.4l-0.4-0.2l-0.1-0.3l0.1-0.3l-0.2-0.2l-0.4-0.1l-0.2-0.8l0.1-1.5l-0.2-1.1
	l-0.4-0.7l-0.2-0.6v-0.6l-0.4-0.9l-0.9-1.2l-0.6-1.6l-0.3-2l-0.6-1.1l-0.3-0.1l-0.2-1l-0.2-0.1v-0.4l-0.8-0.9v-0.3l0.1-0.4l0.5-0.9
	l0.5-1.4l0.1-1l0.4-0.7v-0.4l-0.1-0.5l-0.2-0.5l-0.6-0.3l-0.1-0.2l-0.1-0.5l0.3-0.3l0.1-0.4l-0.1-0.5l-0.4-0.8l-0.2-0.8h1.4h3.1h3.1
	h3.1h3.1h3.1h3.1h3.1h3.1h3.1h3.1h3.1h3.1h3.1h3.1h3.1h3.1l0.1,0.8l0.2,0.6l0.4,0.5l0.6,0.3l0.1,0.7l-0.4,1l-0.1,1.3l0.1,1.5
	l0.3,1.3l0.5,1.2l1,0.9l1.6,0.6l1,0.8L347.4,95.6L347.4,95.6z"/>
<path id="US-ID" class="st0" d="M155.4,69.9v2v2v2v2v2v2v2v2v2v2v2v2v2v2v2v2h-1.8h-1.8H150h-1.8h-1.8h-1.8h-1.8H141h-1.8h-1.8H136
	h-1.8h-1.8h-1.8H129h-1.8h-3.5h-3.5h-3.5h-3.5h-3.5h-3.5h-3.5h-3.5v-2.8v-2.8v-2.8v-2.8v-2.9v-2.9V82v-3.2v-0.1l0.6-2l0.1-1
	l-0.2-0.5l0.1-0.5l0.4-0.5v-0.6L99.8,73l-0.7-0.4l-1-0.2l-0.5-0.7v-1.2l0.8-1.9l1.6-2.5l0.9-1.8l0.2-1.1l1-2.4l1.8-3.8l0.7-2.5
	l-0.4-1.1l-0.9-1l-1.4-1l-1-1.2l-0.3-0.6l-0.6-0.5l-0.2-0.9l0.2-0.5l-0.2-0.9l-0.6-1.3l-0.2-1l0.1-0.3l0.1-0.1v-2.2v-2.2v-2.2v-2.2
	v-2.2v-2.2v-2.2v-2.2v-2.2v-2.2v-2.3v-2.3v-2.3v-2.3v-2.3V8.3h3h4h2.3v3.5v3.5v3.5v3.5l1,1.4l0.8,0.9l0.5,0.9l0.7,1l0.1,0.4l0.3,1
	l-0.2,0.8l0.4,0.8l-0.1,0.4l-0.3,0.2l-0.1,0.1v0.1l0.1,0.1l1,0.7l1,1l1.3,0.7l0.4,0.4l1.7,2l0.9,1.3l0.9,0.9l0.5,1.1l1,0.9l0.2,0.5
	l0.1,0.1h0.1l0.6-0.2l0.2,0.1l0.3,0.4l0.1,0.6l0.2,0.2l0.4,0.1h0.4l1.3-0.3h0.3l0.1,0.1l0.1,0.3v0.5l-0.1,0.7l-0.7,0.6l0.1,0.6
	l-0.3,1.5l-0.3,1v1l-0.4,0.6l0.2,0.7l-0.1,1l0.1,0.3l0.5,0.5l0.2,1.2l-0.1,0.2l-0.9,0.4l-0.3,0.3l-0.1,0.5l0.4,1.3l-0.3,0.7v0.6
	l0.1,0.2l0.8,0.3l0.9,0.7l0.3,0.2h0.2l0.4-0.2l0.4-0.5l0.9-0.5l1-1.1v-0.3l0.1-0.2h0.1l0.3,0.1l0.7,0.6l0.6,0.4l0.1,0.1v0.2v0.6
	l0.3,0.5l0.1,0.8l0.3,0.8l0.2,1l0.8,1.3l0.5,0.9l0.5,0.4l0.3,0.5l0.2,0.6l0.1,0.5l-0.3,0.9l0.1,0.4l0.3,0.4l0.9,0.9l0.2,0.1l0.8-0.1
	l0.4,0.1l0.4,0.4l0.4,0.7l0.3,0.7l0.1,0.8l0.5,0.9l0,0.5l0.3,0.3l0.6,0.5l0.5,0.3h0.2l0.2-0.1v-0.4l0.2-0.3l0.7-0.5h0.6l2.4,0.4h0.2
	l0.1-0.2l0.4-0.7l0.3-0.3l0.5-0.1l1.5,0.2l1.7-0.1l0.9,0.2l1.3-0.3l1.5,0.2l0.2-0.1V69l-0.1-0.3v-0.5l0.3-0.6l0.1-0.5l0.3-0.3
	l0.4-0.2h0.3l0.3,0.3l0.4,0.5l0.6,1.3l0.3,0.5l0.4,0.4L155.4,69.9z"/>
<path id="US-IL" class="st0" d="M374.1,95.8v2l0.2,1.6l0.3,0.7l0.3,0.5l0.3,0.3l0.4,1.1l0.5,1.8l0.4,1.2l0.3,0.5v3.3v3.7v3.7v3.7
	v3.7v3.7v3.7v3.4v0.1l-0.4,0.4l-0.3,0.6l0.1,0.7l-0.1,0.5l-0.3,0.3l0.2,0.8l0.6,1.2l0.4,1.2l0.1,1.2l-0.1,0.8l-0.5,0.8l-0.5,1.6
	l-0.4,0.7l-0.5,0.2l-0.5,0.6l-0.4,1l-0.4,0.5h-0.5l-0.3,0.2l-0.2,0.4v0.4l0.3,0.4l-0.1,0.4l-0.5,0.4v0.2l0.1,0.1v0.2l-0.3,0.2
	l-0.2,0.5v0.9l-0.2,0.5h-0.3v0.3l0.5,1l-0.3,0.2l-0.5,0.8l-0.1,0.9l0.3,1l-0.8,0.8l-1.9,0.6l-1,0.6l-0.1,0.5l0.1,0.7l0.4,1l0.1,0.7
	l-0.2,0.4l-1.3-0.3l-2.4-0.9h-1.6l-0.8,1l-0.3,0.7l0.1,0.6l-0.7-0.7l-0.5-0.3h-0.1l-0.1,0.1v0.2v0.2l0.1,0.2v0.1h-0.1l-0.5-0.3
	l-0.6-0.8l-0.7-1.3l-0.2-1l0.4-0.8v-0.8l-0.4-0.8l-0.4-0.9v-0.8l-0.9-1.2l-1.9-1.6l-1.4-1l-0.9-0.4l-1-0.8l-1.2-1.3l-0.6-1l-0.1-0.7
	l0.5-1.8l1.6-3.9l0.2-0.5v-0.2l-0.1-0.2l-0.2-0.2l-0.7-0.5l-1.3-0.4l-1.2-0.2l-0.9,0.5l-0.8-0.9l-0.7-2.3l-1.7-2.5l-2.7-2.6
	l-1.6-1.8l-0.4-0.9l-0.4-1.4l-0.3-1.9V124l0.5-1.9l0.5-0.2l0.1-0.6l-0.1-1.1l0.5-0.8l1.2-0.6l1.1-1.2l1-1.9l0.4-1.4l-0.1-0.8
	l-0.3-0.8l-0.6-0.8l-0.1-0.9l0.3-1.1l1-0.7l1.7-0.3l1.6-0.6l1.4-0.8l0.8-0.9l0.3-1l0.4-0.8l0.5-0.5l0.4-0.9l0.2-1.2v-0.9l-0.2-0.6
	l-0.6-0.7l-1.1-0.8l-0.6-0.7l-0.1-0.7l-0.6-0.7l-1-0.8l-0.6-0.9h4.3h4.2h4.2h4.2h4.2h4.2L374.1,95.8z"/>
<path id="US-IN" class="st0" d="M402.5,105.8v4.1v4.1v4v4v4v4v4v4l-0.2,0.1l-0.2,0.5l0.2,0.5v0.4l-0.3,0.3l0.1,0.2l0.4,0.2l0.2,0.4
	l-0.1,0.6l-1,0.6l-1.8,0.7l-0.4,0.2l-0.3,0.1h-0.2l0,0l-0.2-0.1l-0.3-0.3l-0.6-0.1l-0.9,0.1l-0.4,0.6l0.2,1l-0.3,0.8l-0.8,0.5
	L395,146l-0.3,0.9l-0.6,0.5l-0.8,0.2l-0.6,0.8l-0.5,1.5l-0.5,0.9l-0.6,0.4l-0.8-0.1l-1-0.5l-0.6-0.5l-0.2-0.6l-0.3-0.4l-0.3-0.2
	h-0.2v0.1l0.1,0.2l-0.1,0.2l-0.6,0.1l-0.3,0.2l0.1,0.4l-0.1,0.3l-0.3,0.2l-0.2,0.4v0.6l-0.3,0.5l-0.5,0.5l-0.7-0.2l-0.9-0.8
	l-0.9-0.2l-1,0.5l-0.7,0.6l-0.5,0.8l-0.4,0.2l-0.7-0.6l-1.5-0.8l-0.8-0.2l-0.6,0.2l-0.4-0.1l-0.1-0.2l-0.1-0.1l-0.1,0.1v0.7
	l-0.1,0.4l-0.3,0.2l-0.2-0.2l-0.1-0.5l-0.3-0.2l-0.5,0.2l-0.5-0.1l-0.5-0.3h-0.2l-0.1,0.1v0.5l-0.1,0.4l-0.2,0.3l-0.3,0.1l-0.5-0.2
	l-0.2,0.1l-0.5-1V152h0.3l0.2-0.5v-0.9l0.2-0.5l0.3-0.2v-0.2l-0.1-0.1v-0.2l0.5-0.4l0.1-0.4l-0.3-0.4v-0.4l0.2-0.4l0.3-0.2h0.5
	l0.4-0.5l0.4-1l0.5-0.6l0.5-0.2l0.4-0.7l0.5-1.6l0.5-0.8l0.1-0.8l-0.1-1.2l-0.4-1.2l-0.6-1.2l-0.2-0.8l0.3-0.3l0.1-0.5l-0.1-0.7
	l0.3-0.6l0.4-0.4V134v-3.4v-3.7v-3.7v-3.7v-3.7v-3.7v-3.7v-3.3l0.1,0.1l0.3,0.3l0.3,0.2h0.2l0.1,0.3l0.5,0.2l1,0.1l0.9-0.1l0.8-0.3
	l2-1.1h2.3h2.8h2.8h2.9h2.8h2.8h2.9L402.5,105.8z"/>
<path id="US-KS" class="st0" d="M310.1,162.9h-2.2h-2.2h-2.2h-2.2h-2.2H297h-2.2h-2.2h-2.2h-2.2H286h-2h-2.2h-2.2h-2.2h-2.2H273
	h-2.2h-2.2h-2.2h-2.2H262h-2h-2.2h-2.2h-2.2h-2.2H249h-2h-2.2h-2.2h-2.2v-2.2v-2.2v-2.2v-2.2v-2.2v-2.2v-2.2v-2.2V143v-2.3v-2.3
	v-2.3v-2.3v-2.3v-2.3v-2.3h2h2h2h2h2h2h2h2h2h2h2h2h2h2h2h2h2h2h2h2h2h2h2h2h2h2h2h2h2h2h2h1.7l2.2,1.6h0.6l0.7-0.3l0.5,0.4l0.3,1
	v0.5H308l-0.6,0.6l-0.7,1.1l0.2,1.1l1,1l0.7,1l0.3,1l0.7,0.8l1.5,0.8v0.5v1.6v1.6v1.6v1.6v1.6v1.5v1.6v1.5v1.5v1.5v1.5v1.5v1.5v1.5
	v1.5L310.1,162.9z"/>
<path id="US-KY" class="st0" d="M423.1,145.7l0.2,0.3l0.1,1.8l-0.1,0.3l-0.3,0.7v0.4l0.3,0.6l1,1.4l0.1,0.5l0.4,0.5l0.3,0.8l1.1,1.7
	l1.7,1.4l1.3,0.4l-3.6,2.9l-1.6,1l-1.5,0.8l-0.1,0.1l-0.3,0.9l-1.1,0.9l-0.6,0.8l-1.4,0.7l-1,1l-2.5,1l-1.4,0.3l-1,0.6H413h-0.1
	h-0.1h-0.1h-0.1h-0.1h-0.1h-0.1l-3.3-0.1l-3.3-0.1l-3.3-0.1l-3.3-0.1l-3.3-0.1l-3.3-0.1l-3.3-0.1l-3.3-0.1l-3.1,0.1l-3.1,0.1
	l-3.1,0.1l-3.1,0.1l-0.3-0.4l-0.8-0.1l-1.3-0.1l0,0l0.4,1.2v1l0,0H370h-1.6h-1.6h-1.6h-1.6H362h-1.6h-1.9l0.5-1l0.4-0.3h0.2l0.5,0.2
	l0.2,0.1l0.5-0.4l0.4-1l0.3-1.1l0.1-1.2l-0.3-0.9l-0.1-0.6l0.3-0.7l0.8-1h1.6l2.4,0.9l1.3,0.3l0.2-0.4l-0.1-0.7l-0.4-1l-0.1-0.7
	l0.1-0.5l1-0.5l1.9-0.6l0.8-0.8l-0.3-1l0.1-0.9l0.5-0.8l0.3-0.2l0.2-0.1l0.4,0.2l0.3-0.1l0.2-0.3l0.1-0.4v-0.6l0.1-0.1h0.2l0.5,0.3
	l0.5,0.1l0.5-0.2l0.3,0.2l0.1,0.5l0.2,0.2l0.3-0.2l0.1-0.5v-0.7l0.1-0.1l0.1,0.1l0.1,0.2l0.4,0.1l0.6-0.2l0.8,0.2l1.5,0.8l0.6,0.6
	l0.5-0.2l0.5-0.8l0.7-0.6l0.9-0.5l0.9,0.2l0.9,0.8l0.7,0.2l0.5-0.5l0.3-0.5v-0.6l0.2-0.4l0.3-0.2l0.1-0.3l-0.1-0.4l0.3-0.2l0.6-0.1
	l0.1-0.2l-0.1-0.2v-0.1h0.2l0.3,0.2l0.3,0.4l0.2,0.6l0.6,0.5l1,0.5l0.8,0.1l0.6-0.3l0.5-0.9l0.5-1.5l0.6-0.8l0.8-0.2l0.6-0.5
	l0.3-0.9l0.6-0.7l0.8-0.5l0.3-0.8l-0.2-1l0.4-0.6l0.9-0.1l0.6,0.1l0.3,0.3l0.2,0.1l0,0h0.2l0.3-0.1l0.4-0.2l1.8-0.7l1-0.6l0.1-0.6
	l-0.2-0.4l-0.4-0.2l-0.1-0.3l0.3-0.3v-0.4l-0.2-0.5l0.2-0.5l0.2-0.1l0.5-0.4h0.5l0.4,0.4l0.6,0.1l0.8-0.2l0.7,0.1l0.7,0.5l0.6,0.9
	l0.6,1.3l1.1,0.8l1.5,0.3l1.1,0.5l0.7,0.7l0.6,0.2l0.7-0.4l0.7-0.2l0.7,0.3l1,0.6l1.5-0.1l1.9-0.9h1.1l0.3,1l0.8,1l1.3,1.1
	L423.1,145.7L423.1,145.7z M358.4,168.7h-0.7v-0.1v-0.3v-0.1h0.1h0.2l0.2,0.3L358.4,168.7L358.4,168.7z"/>
<path id="US-LA" class="st0" d="M358,239.5l-0.6,0.3l-3.4-1.1l-0.9-0.9l-0.8-0.2l-0.9-0.1l-1,1.1l-0.8,1.5l1.2,0.8l1,0.4l1.7-0.3
	l0.9-0.7h0.8l0.4-0.2l0.3-0.4l0.7,0.3v0.3l-0.5,0.4l-0.6,0.3l-0.4,0.4l0.7,0.8l1.1,0.3l0.4-0.1l0.3-0.9l0.7-0.6l0.9,0.1l-0.1,0.4
	l0.1,0.4l0.4,0.6v0.9l0.1,0.2l-1,0.4l-0.7,0.2l-0.6,0.5l0.3,0.3l-0.6,0.3l-0.4-0.1l-0.2,0.1l-0.1,0.3l-0.3,0.3l0.4,0.9l0.9,0.6
	l0.6,0.7l2.5,0.9h0.6l0.6,0.9l0.5,0.3l0.5,0.2v0.7l-0.8,0.5l-0.2,0.6l-0.2,0.3l-0.4-0.4l-0.4-0.3l-0.9,0.9l-0.4,0.2l0.2-1l-0.3-0.4
	l-0.5-1l-0.7-0.6l-0.5-0.2l-0.4-0.4l-0.5-0.2h-0.4l-0.7-0.2v-0.5l-0.2-0.4l-0.5-0.5l-2.7-0.8v0.3l0.2,0.3l0.4,0.2l0.5,0.3v1
	l-0.2,0.4l-0.1,0.6l-0.2,0.6l-0.3,0.5l-0.7,0.3l-0.3-0.3l-0.5-1.3l-0.7-0.4h-1.2l-0.8,0.3l-0.9,1.3l-0.7,0.2l-2.4-0.7l-2.7-1
	l0.1-0.3l0.4-0.1l0.8,0.1v-0.3l-0.8-1.2l-0.2-0.5l0.1-0.6h-0.3l-0.5,0.5l-1.7-0.5l-0.5-0.5l-1-1.5h-1.4l-0.7-0.9l-1.2,0.4l-0.6,0.4
	l-0.5,0.7l0.2,0.3l0.5,0.5l-0.2,0.3l-1.7,0.4l-3.9-0.4l-1.1-0.4l-1.5-0.9l-2.1-0.7l-1-0.1l-1,0.1l-2.9,0.1l-0.7,0.2l-0.6,0.3
	l-0.4-0.3l-0.2-0.6l0.3-0.1l0.4-0.3l0.3-0.7v-0.4l-0.2-0.3l0.6-1.1l0.2-0.4l-0.1-1.8l-0.3-0.7v-0.4l0.3-1v-0.9l0.5-1.1l0.4-0.6
	l0.4-1.2l0.1-0.8l0.2-0.6l-0.1-0.6l0.3-0.5l-0.2-0.6l-0.1-0.8l-0.4-0.3l-0.7-1.2v-0.5l-0.7-1.2v-0.4l-0.7-0.6l-0.1-0.4l-0.1-1.6
	l-0.2-0.5l-0.6-0.9l-1.3-1.3v-1.4v-1.4v-1.4v-1.4v-1.4v-1.4v-1.4v-1.4h1.7h1.7h1.7h1.7h1.7h1.7h1.7h1.7h1.7h1.7h1.7h1.7h1.7h1.7h1.7
	h1.8v0.5l0.5,0.3v0.6l-0.4,0.8v0.6l0.4,0.3v0.3l-0.5,0.4l-0.1,0.4l0.3,0.4l0.1,0.5v0.6l0.4,0.7l0.7,0.5l0.4,0.6v0.3v0.3l-0.1,0.4
	l-0.5,0.6l-0.4,0.4l-0.3,0.2l-0.1,0.3v0.6l-0.6,0.8l-1.2,1l-0.8,1.2l-0.4,1.5l-0.4,0.9l-0.4,0.4l-0.2,0.8v1.1l-0.3,0.6l-0.6,0.1
	l-0.1,0.7l0.3,1.2l-0.1,0.5l-0.4,0.4v0.3h2.3h2.3h2.3h2.3h2.3h2.3h2.3h2.3l-0.3,1.3l-0.7,1.7v0.4l0.2,0.5v0.3l0.3,0.5l0.5,0.5
	l0.5,0.7l0.4,1.2l0.1,0.6l0.3,0.8l0.2,0.2l0.3,0.1L358,239.5L358,239.5z M360.8,240.7v0.5l-0.5-0.3h-0.7l0.3-0.2l0.2-0.2l0.1-0.2
	l0.9-0.6l-0.3,0.5V240.7L360.8,240.7z M364.6,243.7l-0.3,0.3l0.3-1.7l-0.4-1.4l0.4,0.6l0.1,0.7L364.6,243.7L364.6,243.7z M364,244.7
	l-0.5,0.6v-0.2l0.4-0.6l0.3-0.2L364,244.7L364,244.7z M336.7,247l-0.3,0.2l-1.6-0.9l-0.1-0.4l0.8-0.4h0.5l0.7,0.5l0.3,0.1l0.1,0.2
	l-0.1,0.3L336.7,247L336.7,247z"/>
<path id="US-MA" class="st0" d="M534.2,90.9l-0.2,0.7l0.3,0.7l0.2,0.7l0.4,0.7l0.4,0.1l0.4-0.1h0.3l0.2,0.3l-0.1,0.3l-0.5,0.1
	l-0.8,0.6l-0.8,0.1l-0.4,0.7l-0.6,0.8l-1.1,1.3l0.5,0.4l1.7,0.4l0.8,0.5l1.1,2.4l-0.3,0.2l-0.1,0.4l1,0.6l0.3,1.7l0.8,0.6l1.2,0.4
	l1.5-0.5l1.3-0.7v-0.6l-0.8-1.3l-0.2-0.6l-0.6-0.4l-0.2,0.3l-0.4-0.5v-0.3l0.3-0.1h0.4l0.5,0.2l1.2,1.5l0.3,1.9l0.1,1.2l-0.1,0.4
	l-0.4-0.1l-0.7,0.1l-3.3,0.6l-0.7,0.6l-1.7,0.6l-0.1-0.3l0.1-0.6l-0.1-1.3l-0.3-0.1l-2.6,2.1l-1,0.1l-0.8,0.6l-0.2-0.3l-0.2-1.6
	l0.5-1.3h-0.3l-0.5,0.5l-0.3-0.6l-0.3-0.3l-0.3-0.3v-0.5v-0.7l-0.4-0.1v-0.9v-0.6h-0.7h-0.6h-0.9h-1h-0.7v-0.1h-1.1h-1.1h-1.1h-1.1
	h-1.1h-1.1H517h-1.1v0.3h-0.4v-0.3h-0.8h-0.8h-0.8h-0.8h-0.8h-0.8h-0.8h-0.8l-0.3-0.3l0.3-1.1l0.3-1.1l0.3-1.1l0.3-1.1l0.3-1.1
	l0.3-1.1l0.3-1.1l0.3-1.1h0.9h0.9h0.9h0.9h0.9h0.9h0.9h0.9h1.3h1.3h1.3h1.3h1.3h1.3h1.3h1.3l0.8-0.3l1-1l0.6-0.2l1-0.6l0.5-0.1
	L534.2,90.9L534.2,90.9z M537,109.9l-2.6,0.6l-0.4-0.4l0.7-0.2l0.8-0.9l0.5-0.1l0.8,0.5L537,109.9z M542,111.3l-0.7,0.2l-1.7-0.5
	l1.4-0.4l0.2-0.1l0.2-0.6v-0.3l0.5,1.2L542,111.3L542,111.3z"/>
<path id="US-MD" class="st0" d="M487.4,130.3l0.1,1.9l0.1,1.9l0.1,1.9l0.1,1.9l0.1,1.9l0.1,1.9l0.1,1.9l0.1,1.9l0,0l0,0l0,0l0,0l0,0
	l0,0l0,0l0,0h1h2.1h2.1h1v0.3l-0.1,0.5l-0.2,0.2V146l-0.2-0.2l-0.3,0.2l-0.2,0.3l-0.1,1l-0.2,0.5l-0.6,0.2l-0.6,1.3l-0.6,0.8
	l-0.2,0.5l-0.9,0.1l-1.4,0.2l-0.4,0.5l-0.7-0.2h-1.1l0.2-0.7l0.3-0.6l-0.6-0.6l-0.3-0.1l-0.2-0.1l0.4-0.5l0.2-0.6l-0.1-0.7l0.2-0.5
	l-0.3,0.1l-0.5,0.5l-0.3,0.2l-0.2-0.5l-0.2,0.1l-0.1,0.3l-0.3,0.2l-0.6-0.5l-0.9-0.5l-0.5-0.9l-0.3-0.7l0.3-1.3l0.6-0.2l0.8,0.2h1
	l-0.2-0.3h-0.4l-1.1-1l-0.4-0.6l-0.6-0.2l-0.3,0.6l-0.3,0.2l0.4-1.3h0.5l0.7-0.4l-0.2-0.8l-0.5-0.3l-0.8,0.4v-0.5l0.2-0.7h0.6
	l0.6,0.2l0.5-1.1v-0.5l-0.8,0.7l-0.2-1.5l0.8-1.5l0.7-0.7h0.9l0.9-0.1l-0.6-0.3l-0.6-0.2l0.5-0.6l0.4-0.1l0.4-0.5l-0.9,0.1l0.1-1
	L485,132l-0.5,0.1l-0.2,0.4v0.7l-0.2,0.5l-0.4,0.4l-0.7,0.3l-0.1-0.5l-0.2-0.2l-0.1,1l-0.2,0.4l-0.5-1l-0.2,0.2v0.3l-0.1,0.5
	l-0.4,0.3v0.6l-0.2,0.3l-1.4-0.5v0.2l0.8,1.2l0.6,0.4l0.1,0.6l-0.5,0.5l-0.7-0.5h-0.1l0.4,0.8l0.2,0.7l-0.2,0.6v0.7v0.6l-0.2,0.5
	l0.3,2.5l0.4,0.7l0.4,0.7l0.2,0.6l-0.4,0.1l-0.7-0.5l-0.6-0.4l-0.7-1.2l-0.1-0.5l-0.2-0.4l0.1,0.9l0.3,1l2.2,2.2l0.4,0.8l0.3,0.7
	l-0.1,0.6l-0.6-0.5l-0.5-0.6l-1.3-0.7l-1.7-0.4l-0.9-1.5v0.6l-0.2,0.5l-0.6-0.7l-0.4-0.6l-0.1-0.6h-0.7l-0.8,0.5l-0.7-0.1l-0.1-1
	l0.2-0.5l0.8-1.3l0.8-0.7l0.3-0.9l-0.1-1.3l0.1,1l0.8-1l-0.5-0.8l-0.5-0.7l-0.8,0.8l-0.6-0.3l-1-1l-1.7-0.7l-0.2-0.4v-0.4l0.2-0.5
	l-0.5-0.5l-1.3-0.5l-0.5-0.5l-0.1-0.1V134l-0.2-0.3l-0.3-0.2v-0.2l0.2-0.3l-0.2-0.3l-0.5-0.4l-0.2-0.3l0.2-0.3l-0.3-0.1h-0.7
	l-0.7-0.3l-0.7-0.6l-0.8-0.1l-1.4,0.6l-0.8,0.1l-0.3,0.3l-0.2,0.5l-0.3,0.3h-0.8h-0.1l-0.8-0.2l-0.6-0.3l-0.1-0.1l0.1-0.3l-0.1-0.1
	h-0.2l-0.2,0.2l-0.2,0.5l-1.5,1.4l-0.7-0.3h-0.3l-2,2l-0.6,0.3l-1.2,0.9v-1.5v-1.5v-1.6v-1.6h2.2h2.2h2.2h2.2h2.2h2.2h2.2h2.2h2.2
	h2.2h2.2h2.2h2.2h2.2h2.2L487.4,130.3L487.4,130.3z M492.6,150.6h-0.3l0.3-0.4l0.8-2l0.4-0.7l-0.4,1.4l-0.6,1.3L492.6,150.6
	L492.6,150.6z"/>
<path id="US-ME" class="st0" d="M550.7,32.2l0.1,0.3l0.4,0.5l0.6,0.4l0.5,0.1h0.6l1.5-0.7l1.8-0.5l1-0.4l0.2-0.4l0.4-0.1l0.7,0.1
	l1.3,1l1.5,1.5l1.2,1.2v2v2.1v2.3v1.6v2.2v1.7v2.3v1.2l0.2,0.4l-0.1,0.5v0.2v0.2l0.1,0.2v0.3l-0.2,0.3l-0.1,0.4v0.6l0.2,0.4l0.4,0
	h0.2l0.3,0.2l0.4,0.4l0.6,0.3l0.6,0.1l0.4-0.1l0.5,0.2l0.2,0.5l-0.1,0.5l-0.3,0.2l-0.3,0.2l-0.1,0.4l0.2,0.4l0.2,0.3l0.2,0.6
	l-0.1,0.5l-0.2,0.4l-0.1,0.4l0.2,0.4l0.5,0.5l0.3,0.5l0.5,0.3l0.2-0.2l0.2-0.3l0.2-0.2l0.3,0.1l0.4,0.1l0.4,0.2l-0.1,0.4l0.3,0.7
	l0.2,1.3l-0.3,0.6l0.1,0.8l0.9,0.2l0.2,0.2v0.3l-1.9,2l-1.6-0.3l-0.9,0.5l-0.9,0.2l-0.4,0.9l-0.5,0.2h-0.7l-0.6-0.3l-0.5,0.1
	l-0.6,1.6l-0.5-0.1l-0.2,0.6l-0.3,0.3l-0.4,0.2l-0.3-0.7l-0.2-0.7l-0.3-0.1l-0.4-0.2h-0.4l-0.3,0.1l-0.4,0.4l-0.5,0.4l-0.4-0.3
	l-0.3-0.5l-0.3,0.8l-0.4,0.9l0.1,1l-0.2,0.6l-0.4-0.2l-0.4-0.5l-1.1-0.4h-0.8l0.2-0.6l0.8-0.8l-0.2-0.2l-0.4,0.1l-0.2-0.1l0.3-0.7
	v-0.8l-0.3,0.3l-0.4,0.9l-1.1,0.7l0.1,1.1l-1,2.3l-0.1,1l-0.7,0.8l-0.8,0.7l-1.1-0.2l-0.8,0.6l-0.4,0.7l-0.4,0.1l-0.2-0.8l-0.1-0.3
	l-0.3,1.3l-0.3,0.1l-0.1-0.9l-0.2-0.6l-0.4,0.5l-0.3,1.3l-0.3-0.1l-0.1-0.5l-0.2-0.2l-0.1,0.6l0.1,0.8l-0.2,0.4l-0.3-0.2l-0.3-0.4
	l-0.5,0.3l-0.5,0.1v-0.4l0.1-0.5l-0.9,0.3l-1.1,0.9l-0.8,1.2l0.3,0.2l0.3,0.4l-1.5,1.9l-1.5,1.7l-1.2,2.8l-0.5,0.3l-0.4,0.5
	l-0.8-1.2l-0.2-1l-0.8-1.2l-0.3-0.8l-0.1-0.9v-1l-0.1-1.4l-0.1-1.4l-0.1-1.4l-0.1-1.4l-0.1-1.5l-0.1-1.5l-0.1-1.5l-0.1-1.5l-0.1-1.5
	l-0.1-1.5l-0.1-1.5l-0.1-1.5l-0.1-1.5l-0.1-1.5l-0.1-1.5l-0.1-1.3l0.2-0.2l0.6-0.4h0.4l0.3,0.6l0.3,0.4l0.3-0.1l0.3-0.5v-0.7
	l0.4-0.5l0.4-0.1h0.4l0.2-0.3v-0.4l-0.1-0.6v-0.7l1-1.2l1.2-0.8l0.4-0.4l0.1-0.9l0.7-0.9l0.3-0.5l0.1-0.5l-0.2-0.5v-1l0.2-1.3
	l0.3-1.4l0.7-1.2l1.1-1.4l0.3-1.8l0.3-1.9l1.3-1.8l1.5-2.1l0.8-1.2l1.5-2.2l1.1-1.5l0.5-0.7l0.6-0.9l0.9,0.3l0.9,0.3l-0.1,1.2
	L550.7,32.2L550.7,32.2z M558.9,72.1l-0.6,0.3l-0.6-0.1V73l-0.1,0.3l-0.7-0.4l-0.2-0.2v-0.9l0.6-0.9l0.4-0.3l0.6,0.2l0.4,1
	L558.9,72.1L558.9,72.1z M554.8,73.9l-0.4,0.3l-0.4-0.1v-0.6l0.1-0.2l0.1-0.1l0.2,0.2L554.8,73.9z"/>
<path id="US-MI" class="st0" d="M363.4,23.4v0.2l0.3,0.1l-0.1,0.1l-0.4,0.2l-1,0.4l-0.7,0.1l-0.4-0.1v-0.3l0.3-0.4v-0.2h-0.3
	l0.1-0.2l0.4-0.3l3.7-2.1l1.6-0.8l0.8-0.3l0.1,0.1l-0.9,0.8l-0.2,0.3v0.2l-0.3,0.4l-2.7,1.5L363.4,23.4L363.4,23.4z M370.3,33.3
	l-0.2,0.5v0.3l-1.1,1.2l-0.4,0.8l-0.3,0.1l-0.3-0.5v-0.4l0.3-0.3l0.3-0.4V34l-0.1-0.2l-0.3,0.5l0.2,0.1l0.1,0.1l-0.1,0.2l-1.3-0.3
	l-0.4-0.4l0.1-0.6l0.4-0.8l1.6-1.6l0.7-0.5l2-0.7l1.1-0.2h1.1l0.8,0.2l0.5,0.5l-0.5,0.3l-2.2,0.3l-0.1,0.1l0.4,0.3l0.1,0.2l-0.4,0.5
	L370.3,33.3L370.3,33.3z M406.6,43l0.3,0.2l0.2,0.3l0.5,0.8l0.2,0.6l0.2,0.8l0.1,0.3v0.5l-0.3,0.3l-0.1,0.3l0.2,0.3l1.1,0.1l0.5,0.3
	l0.2,0.3l-0.1,0.3l0.1,0.3l0.3,0.4l0.9,0.5l0.2,0.3l-0.1,0.2l-0.3,0.2l-0.5,0.1l-3.4-0.5l-1-0.1l-0.2,0.2h-0.1h-0.2H405l-0.2-0.1
	l-0.1-0.3l-0.3-0.2l-0.5-0.1l-0.4,0.3l-0.5,1l0.1,0.2l-0.1,0.7l0.1,0.2v0.1l-0.1,0.1h-0.3l-0.4-0.2l-1.6-1.5l-1.2-0.8l-1.5-0.6
	l-1.2-0.3h-0.9l-0.7,0.4l-0.6,0.8l-0.9,0.4l-1.2,0.1l-0.7,0.2l-0.1,0.3h-0.4l-0.8-0.3l-0.8-0.1l-0.8,0.1l-0.6,0.3l-0.6,1l-0.1,0.5
	l-0.5,0.4l-1.2,0.6l-0.1,0.2l-0.6,0.7l-0.2,0.4v0.4h-0.2l-0.4-0.4v-0.6l0.4-0.8l0.3-0.4h0.3l0.2-0.3l0.1-0.7l-0.1-0.3l-0.6,0.1
	l-0.3,0.3l-0.4,0.1l-0.5-0.2l-0.4,0.4L383,53l-0.4,0.6l-0.5,0.3l-0.3-0.3l-0.2-0.9V52l0.2-0.9l-0.1-0.2l-0.2,0.3l-0.3,0.7l-0.4,1.5
	l-0.3,0.5l-0.4,0.2l-0.6,0.9l-0.8,1.6l-0.9,1.6l-1,1.5l-0.6,0.8l-0.2,0.1l-0.1,0.3v0.6l-0.5-0.2l-0.4-0.5l-0.2-0.5v-0.5l0.5-1.4
	v-0.2l-0.1-0.1l-0.3-0.1l-0.7,0.3h-0.7l-0.2-0.1l-0.1-0.2v-0.4l0.1-0.4l0.4-0.8v-0.8l0.2-0.4l-0.2-0.8V54l-0.3-0.4l-0.8-0.6
	l-1.8-0.8l0.2-0.8l-0.1-0.4l-0.5-0.5l-1.9-0.6l-1.3-0.3h-1.3l-0.9-0.2l-1-0.1l-0.7-0.4l-0.7-0.4l-0.7-0.4l-0.7-0.4l-1.2-0.3
	l-1.2-0.3l-1.2-0.3l-1.2-0.3l-1.2-0.3l-1.2-0.3l-1.2-0.3l-1.2-0.3l-0.3-0.6l-0.3-0.6l-0.3-0.6l-0.3-0.6l-0.5-0.2l-0.3-0.1l-0.2-0.3
	l-0.5,0.1l-0.2-0.5v-0.1l0.6-0.1l1.8-0.7l1.5-0.9l1.3-1l1.6-0.6l1.9-0.2l1.3-0.4l0.8-0.5l1.1-1l0.6-0.3L362,36l0.6-0.4l0.4-0.7
	l0.7-0.8l1.1-0.9l0.6-0.3l0.2,0.2l0.1,0.3v0.4l0.3,0.4l0.6,0.3l0.3,0.4v0.5l0.2,0.4l0.4,0.3l0.1,0.7l-0.2,1v0.7l0.1,0.3l0.1,0.2
	l0.2-0.2l0.3-0.4l0.1-0.2l0.1-0.2l1.6-1.1h0.3l0.5,0.3l2.4,0.4l0.9,0.3l1,0.6l0.3,0.2l1.2,2l0.5,0.8l0.3,0.2l0.2,0.3l0.2,0.7
	l0.2,0.2l1.8,0.1l0.8-0.1l0.5-0.3l0.5,0.2l0.6,0.6l0.6,0.2l0.6-0.3h0.5l0.5,0.3l0.2,0.2h0.2l1-1l1.2-0.9l1.6-0.9l0.9-0.4l0.3,0.1
	l1.5-0.3h1.3l1.8,0.2l1.6-0.2l1.5-0.6l1.3-0.4l1.2-0.1l0.4,0.2l-0.3,0.4l-0.2,0.7v1l-0.1,0.6l-0.2,0.3v0.3l0.1,0.3l1.1,0.2l0.6,0.3
	h0.7l0.8-0.3l0.6,0.1l0.4,0.5l0.6,0.1l0.6-0.4l0.4-0.4l0.3-0.2L406.6,43L406.6,43z M408.8,45v0.3l-0.3-0.1l-0.2-0.2l-0.2-0.3
	l-0.2-0.8l-0.4-0.6l0.5-0.7l0.3-0.1l0.4,0.1V43l-0.3,0.6v0.6L408.8,45L408.8,45z M408.9,46.6l-0.1,0.1l-0.5-0.5l-0.1-0.3l0.1-0.3
	h0.2l0.3,0.3l0.2,0.3v0.3L408.9,46.6z M414.7,49.7l0.1,0.3l-0.2,0.4l-0.7,0.2h-1.3l-0.9-0.2l-0.4-0.3l-0.1-0.2v-0.4h0.2l0.3,0.2
	l0.4-0.1l0.6-0.4l0.3-0.1v-0.2l-0.2-0.3l0.2-0.1l0.7,0.1l0.3,0.2l0.5,0.8L414.7,49.7L414.7,49.7z M404.8,52.3l1.2,0.2l0.1-0.1
	l0.3,0.4v0.3l-0.1,0.3l-0.2,0.1h-0.3l-0.4-0.3l-0.7-0.7L404.8,52.3L404.8,52.3z M402.8,52.7l0.7,0.3l1.2,0.8l1.1,0.5l1.1,0.1
	l0.8,0.3l0.5,0.5l0.4,0.5l0.2,0.5l0.5,0.3l0.8,0.1l0.6,0.2l0.5,0.4l2.6,1l1.1,0.5l0.6,0.5l0.2,0.3v0.3l0.1,0.4l0.4,0.7l0.2,0.1
	l0.1,0.3v0.6l0.1,0.4l0.2,0.2l-0.1,0.1l-0.8-0.4l-0.5,0.1l-0.2,0.5v0.4l0.2,0.4l1,1.2l0.3,1.1v1.3l-0.1,0.5l-0.1,1.1l-0.1,1.8v0.6
	l-0.4,0.9l-0.9,0.9v-0.2h-0.2l-0.2,0.1l-0.3,0.7l-0.3,1.3l-0.3,0.7l-0.4,0.1l-0.2,0.2l-0.1,0.3l-0.4,0.2l-0.8,0.1l-0.5,0.4L411,78
	v0.5l-0.2,0.7v0.6l0.2,0.5l0.6,0.5l1.1,0.5l0.6,0.1l0.4-0.2l0.5-0.8l0.4-0.3l0.5-0.1l0.2-0.4l0.9-1.6v-0.3l-0.3-0.1v-0.1l0.4-0.1
	l0.4-0.2l0.3-0.4l0.5-0.3l1.3-0.4l0.7-0.5l0.5-0.1l0.7,0.3l0.8,0.6l0.7,0.8l0.5,1.1l0.6,2.8l0.8,4.6l0.5,2.5l0.3,0.5L425,89
	l-0.7,3.6l-0.5,1.5l-0.9,0.8l-0.9,0.8l-1.2,1.4l-1.3,0.7l-0.7,0.4l-0.1,0.3l-0.2-0.1l-0.3,0.8l-0.3,1l-0.1,0.8l0.1,0.4l-0.3,0.3
	l-0.5,0.5l-0.1,0.2v0.3l-0.1,0.2h-0.2l-0.2,0.2l-0.4,0.5l-0.8,1.4l-0.1,0.3l-0.1,0.1l-3.1,0.1l-3.1,0.1l-3.1,0.1l-3.1,0.1v-0.7h-2.8
	h-2.8h-2.8h-2.8h-2.8h-2.8h-2.3l0.6-0.3l1-0.8l0.6-0.7l0.5-1l0.5-1.2l1.1-1.8l0.5-1.1l0.5-1.4l0.4-1.4l0.3-1.5l0.1-1.6v-1.6
	l-0.3-1.6l-0.5-1.7l-0.3-0.8l-0.1-0.2l-0.9-2.1l-1-3V81l0.9-1.8V79l-0.1-1.5l-0.2-0.7l-0.5-1v-0.3l1-1.3l0.6-1l0.5-1.2l0.3-1.4
	l0.2-1.5v-1l-0.2-0.5v-0.4l0.2-0.3l1-0.4l0.3-0.6l0.1-1.1l0.2-0.5h0.3l0.3-0.2l0.3-0.5l0.4-0.1l0.5,0.2l0.7-0.7l0.9-1.5l0.7-0.9
	l0.5-0.2l0.1,0.1l-0.3,0.5l-0.1,0.5l0.1,0.5l-0.1,0.5l-0.2,0.7l0.1,0.2l-0.4,1.2v0.6l0.2,0.4l0.3-0.1l0.3-0.8l0.1-0.4h-0.1V64
	l0.2-0.6l0.2-0.3h0.2v0.3L396,64l-0.5,1.5l-0.1,0.4l0.1,0.1l0.6-0.9l0.5-1.4l0.4-1.1l0.1-0.6l-0.1-1.6v-0.6l0.2-0.4l0.5-0.5l0.9-0.6
	l0.9-0.3h0.9l0.6,0.1l0.3-0.3l-0.1-0.2l-0.6-0.2l-0.5-0.4l-0.3-0.5l-0.1-0.6l0.1-0.7l0.4-0.7l0.7-0.7l0.2-0.5l-0.2-0.3l0.3-0.1
	L402,53l0.6-0.1L402.8,52.7L402.8,52.7L402.8,52.7z M395.4,55.2l-0.3,0.1l-0.3-0.2v-0.6l0.3-1.1l0.3-0.5l0.6,0.2l-0.1,0.1l0.1,1.2
	l-0.2,0.5L395.4,55.2z M391.4,61.9l-0.1,0.2H391l-0.2-0.2l-0.2-0.6l0.1-0.1l0.5,0.1l0.2,0.3V61.9L391.4,61.9z"/>
<path id="US-MN" class="st0" d="M321.7,13.7l1.1-0.2h1l1,0.1l0.5,0.1l1.5,0.6l1,0.5l1.4,1l0.8,0.4l0.4,1l0.4,1.3h0.6l0.5-0.7
	l1.2-0.1l1.6,0.5l1.4,1.5l2,1.3l1.2,0.6h1.2l1.6-0.6l1.7-1.3l1.2-0.2l0.7,0.1l0.4,1l0.5,0.4l1.3-0.1l2.7,0.2l2.2-0.3l0.5,0.6
	l0.4,0.9l0.9,0.3l1.2-0.3l1.9,0.2l-0.3,0.1h-0.3l-0.4,0.2l-0.5,0.5l-1,0.6l-1.6,0.8l-1.9,0.8l-3.8,1.4l-2.3,1.4l-1,0.9l-4,4.3
	l-2.4,2.3l-4,3.2l-0.4,0.4v0.4h-0.2l-0.7,0.8l-0.3,0.5l-0.6,0.1v2v2v2v2l-0.3,0.2l-0.4,0.5l-0.5,0.1l-2.5,1.6l-0.4,0.5l-0.5,1.1
	l-0.8,1.2l-0.2,0.6v0.9l1.3,0.7l0.5,0.7l0.2,0.8v0.7l-0.6,1.4l-0.1,0.5l0.1,1.7l-0.3,0.5l0.3,1.4v0.5l-0.2,1.5l-0.1,0.4l0.3,0.8v0.1
	l1.2,1.1l1,0.6l0.9,0.2l0.7,0.5l0.5,0.7l0.7,0.5l0.9,0.2l0.9,0.6l1.3,1.5l0.7,1.2l1.2,0.9l1.9,0.9l1.2,0.8l0.6,0.7l0.4,1.8l0.3,3.8
	h-3.1H336h-3.1h-3.1h-3.1h-3.1h-3.1h-3.1h-3.1h-3.1H308h-3h-3.1h-3.1h-3.1h-3.1v-2.9v-3.6v-2.9v-2.9v-3v-3v-3v-3l-0.7-1l-1.6-0.8
	l-0.4-0.5l-0.7-1.2l-0.3-0.5v-0.4l0.3-0.5l1.4-1.3l0.5-0.6l0.2-0.6l0.3-1.3l-0.1-1l0.1-1.6l-0.3-1.2l-0.1-0.6l-0.2-0.8l-1.1-2
	l-0.3-1.6l-0.3-0.8l-0.1-2v-0.6l0.2-1.1l-0.5-0.8l-0.1-0.6l0.2-4.8l-0.1-0.7v-2.3l-0.8-2.4l-0.4-0.8l-0.2-1v-0.5l-0.7-1.6l-0.5-1.8
	v-1.6l-0.1-1.2v-0.9l-0.1-1.4l0.1-0.8v-1.3l-0.9-4.5h1.2h4h4h4h4h2.2v-3V2.9l2,0.3l0.6,0.4l0.2,0.2l-0.1,0.7l0.2,2l0.4,1.7l0.8,2
	l0,0l0.1,0.8l0.3,0.5l0.5,0.5l2,0.5l3.4,0.6l1.9,0.7l0.5,0.8l0.9,0.3l1.3-0.2l1-0.4L321.7,13.7L321.7,13.7z M321.7,13.7L321.7,13.7
	L321.7,13.7L321.7,13.7z"/>
<path id="US-MO" class="st0" d="M340,122.3l-0.5,1.9v1.6l0.3,1.9l0.4,1.4l0.4,0.9l1.6,1.8l2.7,2.6l1.7,2.5l0.7,2.3l0.8,0.9l0.9-0.5
	l1.2,0.2l1.3,0.4l0.7,0.5l0.2,0.2l0.1,0.2v0.2l-0.2,0.5l-1.6,3.9l-0.5,1.8l0.1,0.7l0.6,1l1.2,1.3l1,0.8l0.9,0.4l1.4,1l1.9,1.6
	l0.9,1.2v0.8l0.2,0.8l0.4,0.8v0.8l-0.4,0.8l0.2,1l0.7,1.3l0.6,0.8l0.5,0.3h0.1v-0.1l-0.1-0.2v-0.2v-0.2l0.1-0.1h0.1l0.5,0.3l0.7,0.7
	l0.3,0.9l-0.1,1.2l-0.3,1.1l-0.4,1l-0.5,0.4l-0.2-0.1l-0.5-0.2l-0.2,0.1l-0.4,0.3l-0.5,1l0,0l-0.2,0.1l-0.1-0.1v-0.1l-0.1-0.3
	l-0.2-0.3h-0.2h-0.1v0.2v0.3v0.1l0.2,0.9l-0.1,0.6l-0.5,0.3l-0.1,0.3l0.3,0.4v0.2l-0.1,0.1h-0.3l-0.2,0.1l-0.2,0.3l0.4,0.6l-0.1,0.7
	l-0.5,0.9l-0.1,0.3h-1.7h-1.5h-1.5h-1.5l0.7-1.2l0.5-0.4l0.3-0.5l0.6-0.4l0.7-0.9l0.1-0.4l-0.1-0.4l-0.4-0.6l-0.4-0.9H350h-2.6h-2.6
	h-2.6h-2.6H337h-2.6H331h-2.6h-2.6h-2.6h-2.6H318h-2.6h-2.6h-2.6v-1.5v-1.5v-1.5v-1.5v-1.5v-1.5v-1.5v-1.5v-1.5v-1.5v-1.5v-1.5v-1.5
	v-1.6v-1.5v-1.6v-1.6v-1.6v-1.6v-1.6v-0.5l-1.5-0.8L308,136l-0.3-1l-0.7-1l-1-1l-0.2-1.1l0.7-1.1l0.6-0.6h0.4v-0.5l-0.3-1l-0.5-0.4
	l-0.7,0.3h-0.6l-2.2-1.6l-0.2-0.1l-0.7-1l-0.3-1.3l-0.5-0.8l-0.8-0.4l-0.5-0.8l-0.2-1.3l-0.5-1.3l-0.2-0.4h2.3h2.4h2.4h2.4h2.4h2.4
	h2.4h2.4h2.4h2.4h2.4h2.4h2.4h2.4h2.4h2.4l0.5,0.9l0.5,0.3l0.1,0.3l0.7,0.5l0.2,0.5L340,122.3z"/>
<path id="US-MS" class="st0" d="M370.7,186.1l0.8,0.8v0.3v0.2l-0.1,0.5l-0.2,2.1l-0.2,2.1l-0.2,2.1l-0.2,2.1l-0.2,2.1l-0.2,2.1
	l-0.2,2.1l-0.2,2.1l-0.2,2.1l-0.2,2.1l-0.2,2.1l-0.2,2.1l-0.2,2l-0.2,2l-0.2,2l-0.2,2l0.1,2.1l0.1,2.1l0.1,2.1l0.1,2.1l0.1,2l0.1,2
	l0.1,2l0.1,2.2l-2.8,0.2l-1.2-0.5l-0.5-0.1h-0.3l-1.4,0.5l-1.6,0.4l-0.4-0.1h-0.5l-1.2,1.3l-0.7,0.3l-0.2-0.1l-0.3-0.1l-0.2-0.2
	l-0.3-0.8l-0.1-0.6l-0.4-1.2l-0.5-0.7l-0.5-0.5l-0.3-0.5v-0.3l-0.2-0.5v-0.4l0.7-1.7l0.3-1.3h-2.3h-2.3h-2.3H347h-2.3h-2.3h-2.3
	h-2.3v-0.3l0.4-0.4l0.1-0.5l-0.3-1.2l0.1-0.7l0.6-0.1l0.3-0.6v-1.1l0.2-0.8l0.4-0.4l0.4-0.9l0.4-1.5l0.8-1.2l1.2-1l0.6-0.8v-0.6
	l0.1-0.3l0.3-0.2l0.4-0.4l0.5-0.6l0.1-0.4v-0.3v-0.3l-0.4-0.6l-0.7-0.5l-0.4-0.7v-0.6l-0.1-0.5l-0.3-0.4l0.1-0.4l0.5-0.4v-0.3
	l-0.4-0.3v-0.6l0.4-0.8v-0.6l-0.5-0.3v-0.5v-0.3l0.4-2l-0.1-0.3l-0.4-0.6v-0.7l0.3-0.9l-0.1-0.7l-0.4-0.3l-0.1-0.3l-0.1-0.4l0.4-0.4
	v-0.3l-0.3-0.3l0.2-0.5l0.8-0.6l0.2-0.3l0.2-0.3l0.1-0.8l-0.1-0.5l-0.2-0.3l0.1-0.2l0.2-0.2l0.9-0.3l0.3-0.2l0.1-0.3l-0.3-0.6
	l0.3-0.7l0.9-0.7l0.5-0.6v-0.5l0.4-0.4l0.8-0.3l0.5-1l0.2-1.8l0.2-0.8l0.4-0.1l0.2-0.3l0.1-0.5l0.5-0.5l0.9-0.5l0.4-0.5l-0.1-0.3
	v-0.4h2.4h2.5h2.5h2.5h2.5h2.5h2.5L370.7,186.1L370.7,186.1z M367.1,239.3l-0.1,0.1l-0.8-0.2l-0.5-0.2l-0.1-0.2l1.4,0.4L367.1,239.3
	z"/>
<path id="US-MT" class="st0" d="M221.6,50.7v3.1v3.1V60v3.1l0,0l0,0l0,0l0,0h-0.1h-0.1h-0.1h-0.1h-2.1H217h-2.1h-2.1h-2.1H209h-2
	h-2.1h-2.1h-2.1h-2.1h-2.1h-2.1h-2.1h-2.1h-2.1H186h-2.1h-2.1h-2.1h-2.1H176h-2.1h-2.1h-2.1h-2.1h-2.1h-2.1h-2.1h-2.1h-2.1H155v1.7
	v1.7v1.6v1.7l-0.6-0.4L154,69l-0.3-0.5l-0.6-1.3l-0.4-0.5l-0.3-0.3h-0.3l-0.4,0.2l-0.3,0.3l-0.1,0.5L151,68v0.5l0.1,0.3v0.1
	l-0.2,0.1l-1.5-0.2l-1.3,0.3l-0.9-0.2l-1.7,0.1l-1.5-0.2l-0.5,0.1l-0.3,0.3l-0.2,0.9l-0.1,0.1h-0.2l-2.4-0.4h-0.6l-0.7,0.5l-0.2,0.3
	V71l-0.2,0.1h-0.2l-0.5-0.3l-0.6-0.5l-0.3-0.2l-0.1-0.8l-0.5-0.9l-0.1-0.8l-0.3-0.7l-0.4-0.7l-0.4-0.4l-0.4-0.1l-0.8,0.1l-0.2-0.1
	l-0.9-0.9l-0.3-0.4l-0.1-0.4l0.3-0.9l-0.1-0.5l-0.2-0.6l-0.3-0.5l-0.5-0.4l-0.5-0.9l-0.8-1.3l-0.2-1l-0.3-0.8l-0.1-0.8l-0.3-0.5
	v-0.6V55l-0.1-0.1l-0.6-0.4l-0.7-0.6l-0.3-0.1h-0.1l-0.1,0.2v0.3l-1,1.1l-0.9,0.5l-0.4,0.5l-0.4,0.2h-0.2l-0.3-0.2l-0.9-0.7
	l-0.8-0.3l-0.1-0.2v-0.6l0.3-0.7l-0.4-1.3l0.1-0.5l0.4,0l0.8-0.5l0.1-0.2l-0.2-1.2l-0.5-0.5l-0.1-0.3l0.1-1l-0.2-0.7l0.4-0.6v-1
	l0.3-1l0.3-1.5l0-0.5l0.4-0.7l0.1-0.7v-0.5l-0.1-0.3l-0.1-0.1H124l-1.3,0.3h-0.4l-0.4-0.1l-0.2-0.2l-0.1-0.6l-0.3-0.4l-0.2-0.1
	l-0.6,0.2h-0.1l-0.1-0.1l-0.2-0.5l-1-0.9l-0.5-1.1l-0.9-0.9l-0.7-1.3l-1.7-2l-0.4-0.4l-1.3-0.7l-1-1l-1-0.7l-0.1-0.1v-0.1l0.1-0.1
	l0.3-0.2l0.1-0.4l-0.4-0.8l0.2-0.8l-0.3-1l-0.1-0.4l-0.7-1l-0.5-0.9l-0.8-0.9l-1-1.4v-3.5v-3.5v-3.5V8.2h1.7h4h4h4h4h0.9h3.1h4h4h4
	h4h4h4h4h4h3h1h4h4h4h4h4h4h4h4h4h4h4h4h4h3v2.7v2.7v2.7V19v2.7v2.7v2.7v2.6v2.6v2.6v2.6v2.6v2.6v2.6v2.6L221.6,50.7z"/>
<path id="US-NC" class="st0" d="M485.6,168.1l-0.3,0.9l0.1,0.5l0.5,0.5l0.5,1.3l0.4,1.8l-0.6-0.7l-0.6-0.4l-1-0.3l-0.9-0.5l0.1,0.8
	l-0.1,0.8l-0.7-0.3l-0.5-0.3l0.4,0.9l-0.9-0.3h-0.6l-0.4,0.8l-0.5,0.5l-0.8,0.2l-1.1-0.7l-0.4-0.8l-0.2-0.9l-0.1,1.1l0.2,1.2
	l-0.1,0.9l1.1,0.2l1-0.1h1.4l0.9-0.2l0.5-0.3l1.3,0.2l0.1,1.1l-0.2,1l-0.1,1.1h0.4l0.4-0.4l0.2-2l1.2-0.7h0.4l0.4,0.7l0.1,0.7
	l0.1,0.9l-0.3,1.4l-1.8,1.6l-1.3,1.5l-0.7,0.3l-1-0.2l-1.1-0.4l-0.5-0.1l-0.4,0.1l-0.3-0.5l-0.2-0.8l-0.4-0.3h-0.3l-0.2,0.9l-1,0.3
	l-1.4-0.4l-1.4-0.7l0.6,0.8l3.6,1.5l0.4,0.3l0.4,0.4l-0.5,0.6l-0.4,0.7l-0.1,0.6l-0.1,0.3l-1.4,1l-0.8-0.2l-2-1.7l0.9,1.5l0.7,0.6
	l1.5,0.3l2.7-0.5l0.9,0.6l-0.7,1.1l-0.7,0.8l-1,0.1l-0.8,0.2l-0.3,0.5h-0.6h-0.9h-1.5l-0.8-0.1l-1.1,1l-0.4,0.1l-0.6-0.2l-0.3-0.8
	l-0.3-0.4v1.6l0.1,0.4l0.2,0.3l-1.3,0.9l-1.2,1.1l-0.5,0.3l-0.5,0.5l-1,1.5l-0.3,1.1l-0.4,1.3v-0.6l0.1-1l-0.3-1.1l-0.2,2l-0.4,0.9
	l-3.7-0.1l-1.5,0.5l-1.4-1.4l-1.3-1.3l-1.3-1.3l-1.3-1.3l-1.3-1.3l-1.3-1.3l-1.3-1.3l-1.3-1.3h-1.3h-1.3H446h-1.3h-1.3h-1.3h-1.3
	h-1.3v-0.9v-0.6l-0.8-1.1l-0.5-0.6l-1,0.5l-0.1-0.3v-0.5l-0.1-0.2l-0.3-0.1l-1.5-0.1l-1.5-0.1l-1.5-0.1l-1.5-0.1l-1.5-0.1l-1.5-0.1
	l-1.5-0.1l-1.5-0.1l-0.3-0.1l-0.7,0.4l-1.8,0.6L421,185h-0.3l-1.5,0.5l-1.5,0.5h-0.2h-2.8h-2.8h-2.8h-2.8l0.3-2.4l0.2-0.6l0.3-0.1h1
	l0.6-0.3l0.5-1.5l1.3-1.2l0.6-0.3l0.8-0.2l2-0.3l2.1-1.1l1.5-1.1l1.2-0.3l0.4-0.4l0.3-0.5l0.2-0.7l0.1-0.2h0.7l0.5-0.6l0.5-0.3
	l0.5-0.2h0.3l0.1,0.2l0.1,0.5l0.1,0.2h0.2l0.3-0.1l0.4-0.3l1-1l0.7-0.4l1.1-0.2l0.8,0.5l0.5-0.2l1.3-2.1l0.5-0.4l0.4-0.2h0.7v-0.6
	l0.2-0.9v-0.6l0.4-0.9l0.2,0.2h3.4h3.4h3.4h3.4h3.4h3.4h3.4h3.4h3.4h3.4h3.4h3.4h3.4h3.4h3.4L485.6,168.1L485.6,168.1z M486.4,168.1
	h0.3l0.9,3.7l1.9,4.1l0.2,0.7l-0.4-0.6l-1.4-2.7l-0.8-2L486.4,168.1L486.4,168.1z M488.8,176.2l-0.1,0.2l-0.6-1.3l0.6,0.4l0.1,0.3
	V176.2L488.8,176.2z M489.6,183.3l-1.3,0.3l-0.1-0.1l1.5-0.7l0.5-2.3l0.1-1.1l-0.2-1.9v-0.4l0.2,0.6l0.2,1.8l-0.1,1.3l-0.4,1.9
	L489.6,183.3L489.6,183.3z M487.4,183.9l-1.7,0.8h-0.2l1.1-0.6L487.4,183.9z M480.6,190.1l-0.2,0.1l0.9-1.4l1.7-1.8l0.5-0.3
	l-1.4,1.5L480.6,190.1L480.6,190.1z M480.2,190H480l-0.4-0.1l-0.5-0.2l-0.1-0.2l0.5,0.1L480.2,190L480.2,190z"/>
<path id="US-ND" class="st0" d="M291.8,50.7h-2.2h-2.2h-2.2H283h-2.2h-2.2h-2.2h-2.2H272h-2.2h-2.2h-2.2h-2.2H261h-2.2h-2.2h-2.2
	h-2.2H250h-2h-2.2h-2.2h-2.2h-2.2H237h-2.2h-2.2h-2.2h-2.2H226h-2.2h-2.2v-2.6v-2.6v-2.6v-2.6v-2.6v-2.6v-2.6v-2.6v-2.6v-2.7v-2.7
	v-2.7v-2.7v-2.7v-2.7V8.4h1h4h4h4h4h4h4h4h4h4h4h4h4h4h4h4h2.9l0.9,4.5v1.3l-0.1,0.8l0.1,1.4v0.9l0.1,1.2v1.6l0.5,1.8l0.7,1.6V24
	l0.2,1l0.4,0.8l0.7,2.3v2.3l0.1,0.7l0.2,4.9l0.1,0.6l0.5,0.8l-0.2,1.1v0.6l0.1,2l0.3,0.8l0.3,1.6l1.1,2l0.2,0.8l0.1,0.6l0.3,1.2
	l-0.1,1.6L291.8,50.7z"/>
<path id="US-NE" class="st0" d="M292.5,95.6l0.3,0.1l0.6,1.1l0.3,2l0.6,1.6l0.9,1.2l0.4,0.9v0.6l0.2,0.6l0.4,0.7l0.2,1.1l-0.1,1.5
	l0.2,0.8l0.4,0.1l0.2,0.2l-0.1,0.3l0.1,0.3l0.4,0.2l0.1,0.4l-0.2,0.7l0.1,0.5l0.4,0.2l0.1,0.4l-0.3,0.5v0.4l0.3,0.3l0.2,1.3l0.1,2.4
	v1.4l-0.2,0.4l0.3,0.8l0.6,0.9l0.2,0.4l0.5,1.3l0.2,1.3l0.5,0.8l0.8,0.4l0.5,0.8l0.3,1.3l0.7,1l0.2,0.1h-1.7h-2h-2h-2h-2h-2h-2h-2
	h-2h-2h-2h-2h-2h-2h-2h-2h-2h-2h-2h-2h-2h-2h-2h-2h-2h-2h-2h-2h-2h-2h-2h-2v-1.5v-1.5v-1.5v-1.5v-1.5v-1.5v-1.8v-1.5H238h-2.3h-2.3
	h-2.3h-2.3h-2.3h-2.3h-2.3v-3.1v-3.1v-3.1v-3.2v-3.2v-3.2v-3.2v-3.2h3.3h3.3h3.3h3.3h3.3h3.3h3.3h3.3h3.3h3.3h3.3h3.3h3.3h3.3h3.3
	h3.7l2.8,1.9l1.7,0.6l0.8-0.6l1.7-0.3l2.7-0.1l1.7,0.3l0.7,0.6l1.4,0.7l2,0.8l1.2,0.8l0.4,0.9l0.7,0.5L292.5,95.6z"/>
<path id="US-NH" class="st0" d="M534.9,88.5l-0.4,1.7l-0.3,0.8l-1.1-0.1l-0.5,0.1l-1,0.6l-0.6,0.2l-1,1l-0.8,0.3h-1.3h-1.3h-1.3H524
	h-1.3h-1.3h-1.3h-1.3l-0.2-0.5l-0.5-0.8l-0.1-0.3v-0.4l0.3-1l0.2-0.3l0.2-0.6l0.3-2.4l0.3-1.4l0.2-2.5l0.2-0.8l0.2-0.5l0.4-1.2
	l0.7-1l0.5-1.2l0.5-1.1l0.1-0.6l0.4-1.4l0.3-2.4l0.2-0.6l1.3-0.3l0.4-0.3l1.3-1l0.4-0.4l0.3-0.4l0.2-0.7l0.2-0.2v-0.4l-0.5-1.6v-0.6
	l1-1.8l-0.2-1l0.2-0.3l0.9-2.6l0.9-1.2l1.2,0.4h0.6l0.5-0.4l0.1,1.3l0.1,1.5l0.1,1.5l0.1,1.5l0.1,1.5l0.1,1.5l0.1,1.5l0.1,1.5
	l0.1,1.5l0.1,1.5l0.1,1.4l0.1,1.5l0.1,1.4l0.1,1.4l0.1,1.4l0.1,1.4v1l0.1,0.9l0.3,0.8l0.8,1.2l0.2,1L534.9,88.5z"/>
<path id="US-NJ" class="st0" d="M505,114.7l-0.2,1l-0.9,2l-0.4,0.5l-0.5,0.4l-0.3,0.2l-0.3,0.3l-0.4,0.5l-0.3,1l0.2,0.9l1.8,0.3
	l0.5-0.3l0.3,0.6l0.1,0.9l-0.1,1l-0.3,1l-0.2,1.2l-0.2,1.8l-0.3,1.7v-0.5l0.2-2l-0.3,0.2l-0.2,0.5l-0.5,2.6l-0.8,1.4l-0.7,1
	l-0.7-0.2l0.2,0.8l-0.2,0.4l-0.2,0.8l-0.4,0.5h-0.4l-0.6,0.4l-0.2,0.3v0.5l-0.4,0.5l-1.4,2.5l-1.2,0.7l-0.3-0.1l0.3-1.2l0.2-1.2
	l-0.7-0.5l-0.7-0.3h-0.8l-0.9-0.9l-1.2-0.7l-1.6-1.8v-0.5v-0.8l0.5-1.3l0.5-0.9l0.7-0.5l1.9-0.5l0.5-0.8l0.3-0.6l0.5-0.4l1.1-0.8
	l1.6-0.9l-2.3-3.1l-0.5-0.2l-0.6-1.5l-0.7-0.4l-0.2-0.2v-1.2l0.1-0.7l0.1-0.4l0.6-0.3l0.3-0.7v-0.3l-0.5-1.1V115l0.9-0.7l1.1-1.3
	l0.7-1.4l0.3-0.4l0.3-0.3l0.7-0.4l0.9,0.6l0.9,0.6l0.9,0.6l0.9,0.6l0.9,0.6l0.9,0.6l0.9,0.6H505L505,114.7z M502.9,130.8l-1.1,1.8
	v-0.3l1.4-2.3L502.9,130.8L502.9,130.8z"/>
<path id="US-NM" class="st0" d="M231.2,168.7h-0.4v3.3v3.3v3.3v3.2v3.2v3.2v3.2v3.2v3.2v3.2v3.2v3.2v3.1v3.1v3.1v3.1h-2.1h-2.1h-2.1
	h-2.1H220h-2.1h-2.1h-2.1h-2.1h-2.1h-2.1h-2.1h-2.1h-2.1H199h-2.1l0,0l1,2l0,0l1.1,0.6h-0.1h-2.1h-2.1h-2.1h-2.1h-2.1h-2.1h-2.1
	h-2.1v1.2v1.2v1.2v1.2h-3.3h-3.3h-1.2v-3.9v-3.9v-3.9v-3.9v-4v-4v-4v-4v-4v-4v-4.1v-4.1v-4.1v-4.1v-4.1v-4.2h3.5h3.6h3.6h3.5h3.6
	h3.6h3.6h3.5h3.6h3.6h3.5h3.6h3.6h3.5h3.6h3.6v1.5v1.5v1.5L231.2,168.7z"/>
<path id="US-NV" class="st0" d="M127.2,162.8v4.6v5l-0.2,0.1l-0.5,1.2l-0.6,0.5h-0.5l-0.5-0.3l-0.5-0.7l-0.7-0.4l-0.9-0.1l-0.8,0.1
	l-0.7,0.3l-0.4,0.4l-0.2,0.8l0.1,0.3l0.4,0.8v1.2l0.1,1l0.3,0.5v0.6l-0.2,1l0.1,0.8l0.5,1.4l-0.2,4.1v0.1l-2.6-2.4l-2.4-2.3
	l-2.4-2.3l-2.4-2.3l-2.4-2.3l-2.4-2.3l-2.4-2.3l-2.4-2.3l-1.7-1.6l-1.7-1.6l-1.7-1.6l-1.7-1.6l-1.7-1.6l-1.7-1.6l-1.7-1.6l-1.7-1.6
	l-2.2-1.9l-2.2-1.9l-2.2-2l-2.2-2l-2.2-2l-2.2-2l-2.2-2l-2.2-2v-2.3v-2.3v-2.3v-2.3v-2.3v-2.3v-2.1v-2.3v-2.3v-2.4v-2.3v-2.3v-2.4
	v-2.3v-2.4v-2.3h3.5h3.5h3.5h3.5h3.5h3.5h3.5h3.5h3.5h3.5h3.5h3.5h3.5h3.5h3.5h3.5v2v2v2v2v2v2v1.9v1.9v1.9v1.9v1.9v1.9v1.9v1.9v1.9
	v1.9v1.9v1.9v1.9v1.9v1.9v1.9v1.9v1.9v1.9v1.9v1.8v1.8v1.8v1.8v1.8L127.2,162.8z"/>
<path id="US-NY" class="st0" d="M511.2,92.5l-0.3,1.1l-0.3,1.1l-0.3,1.1l-0.3,1.1l-0.3,1.1l-0.3,1.1l-0.3,1.1l-0.3,1.1l0.3,0.3
	l-0.1,1.2l-0.1,1.2l-0.1,1.2l-0.1,1.2l-0.1,1.2l-0.1,1.2l-0.1,1.2l-0.1,1.2l0.3,0.5l0.3,0.5l-0.3,0.2l-0.5,0.3l-0.6,0.4l-0.8,0.5
	l0.4,0.6l0.5,0.8l-0.4,0.3l-1,1.1l-0.7,0.6l-0.6,0.2l-0.3,0.5l-0.4,0.3l0.4-1.1l0.4-0.9l0.3-1.8l-0.1-1.4l-0.4-0.6l-0.4-0.4l0.5,1.4
	l0.1,1.7l0,0l-0.9-0.6l-0.9-0.6l-0.9-0.6l-0.9-0.6l-0.9-0.6l-0.9-0.6l-0.9-0.6l-0.9-0.6l-0.2-0.5l-0.3-0.4l-1.7-0.6l-0.4-0.4
	l-0.4-0.6l-0.3-0.7l-0.1-0.7v-0.6l0.1-0.7l-0.4-0.4v-0.4l-0.3-0.3l-1.1-0.5l-0.3-0.7l-0.7-0.7h-1.3h-1.3h-1.3h-1.3h-1.3h-1.3h-1.3
	H481h-1.3h-1.3h-1.3h-1.3h-1.3h-1.3h-1.3h-1.3h-1.3H468h-1.3h-1.3h-1.3h-1.3h-1.3h-1.3h-1.3h-1.3h-1.3H455h-1.3h-1.3h-1.3h-1.3v-1.7
	v-1.7v-0.1l0.5-0.3l1.8-1.2l0.9-0.8l1-0.7l1-0.5l0.8-0.7l0.6-0.9l0.7-0.7l0.7-0.4l0.4-0.5v-0.5l-0.1-0.6l-0.3-0.8v-0.6l0.2-0.5v-0.3
	l-0.1-0.2l-1.5-0.5l0.1-2.2v-0.1h0.1l3.4-1l2.2-0.3l2.7-0.1l3.2,0.5l1.2,0.4l0.8,0.6l0.9,0.2l1-0.3l1.4-0.1l1.8,0.1l1,0.1l0.1,0.2
	h0.1l0.1-0.3l0.5-0.3l1.3-0.5l0.2,0.1l0.3-0.2l0.4-0.6l0.7-0.6l1-0.7l0.9-0.4h0.8l0.5-0.2l0.3-0.3l0.1-0.3l-0.1-0.2v-0.3v-0.1v-0.1
	l-0.1-0.2l-0.1-1.1l-0.2-0.3l-0.2-0.4l-0.1-0.3v-0.3l0.5-0.3v0.3l0.1,0.1l0.2-0.1l0.5-0.7v-0.3l0.4-0.3l0.3-0.4l-0.3-0.1l-0.7,0.1
	l-0.2-0.1l0.4-0.5l-0.1-0.3l-0.1-0.1h-0.2l-0.8,0.5h-0.2v-0.3l-0.4-0.6l1.1-1l3.8-2.8l0.4-0.4l0.1-0.4l-0.1-0.3l-0.1-0.1l0.1-0.1
	l3.7-3.6l2.1-1.7l1.7-0.9l1.3-0.5l0.9,0.1l0.5-0.1h0.4h2.2h3.9h3.9h2.3l0.1,0.9l-0.2,1l0.2,1.1l-0.2,2.4l0.6,1.8l-0.1,1.2v1.3
	l-0.1,0.3l-0.5,0.8l-0.3,0.7l-0.2,0.7v0.5l0.4,2.2l0.1,0.9v0.5l-0.3,1.7v0.5l0.1,0.1h0.1l0.4-0.5l0.2-0.1l0.2,0.1l0.6,0.8v1.5v1.1
	v1.2v1.8V89v1.2v0.9l-0.1,0.7L511.2,92.5L511.2,92.5z M484.3,72.8l-0.3,0.1l-0.1-0.1v-0.1l0.3-0.2h0.4v0.1L484.3,72.8L484.3,72.8z
	 M482.9,76.6h-0.1v-0.3l0.1-0.2l0.3-0.1v0.1L482.9,76.6L482.9,76.6z M457.7,89.1l-0.3,0.4h-0.3l-0.2-0.1l-0.1-0.3v-0.3l0.3-0.2
	l0.7,0.1v0.1L457.7,89.1L457.7,89.1z M518.2,114.8l-0.7,0.8l0.6,0.1l0.5-0.2l0.5-0.5l1.1-0.7l1-0.3l0.3-0.1l0.5,0.5l0.9-0.4l0.9-0.2
	l-4.1,2.1l-0.8,0.2l-1.2,0.6l-1.1,0.4l-0.8,0.2l-4.1,1.5h-0.3l-0.3-0.2l-3.3,0.8l-1.4,0.1l-1.3,0.3l0.9-0.6V119l-0.2-0.2h-0.5
	l-0.5,0.7l-0.8,0.2l-0.2-0.7l0.3-0.5l0.4-0.5l0.8-0.8l1.2-0.5l0.6-0.5l0.4,0.4l0.1-0.5l0.3-0.3l0.3-0.2h0.8l0.4-0.1l0.3-0.2h0.3
	l0.9,0.2l0.9-0.1l0.7-0.3l0.7-0.1l1.9-0.1l1.9-0.3l0.8-0.4l1.6-1.2l0.9-0.3l-1.3,1.4L518.2,114.8L518.2,114.8z M502.4,120.5h-0.5
	l0.5-1.2l0.8-0.5l0.3,0.1v0.4l-0.1,0.4l-0.5,0.5L502.4,120.5L502.4,120.5z"/>
<path id="US-OH" class="st0" d="M442.8,119l-1.1,0.5l-0.2,0.5l0.3,0.6l0.2,0.8v1l-0.6,2.2l-1.3,3.4l-0.6,2.1v0.9l-0.8,1.1l-1.7,1.4
	l-1.2,0.8l-0.7,0.3h-0.6l-0.4-0.3l-0.5,0.2l-0.6,0.8l-0.5,0.4H432l-0.4,0.5l-0.3,1l-0.3,0.6l-0.3,0.2v0.5l0.3,0.9v0.3h-0.1h-0.1
	l-0.3,0.2l-0.4,0.5H430l-0.1-0.1l-0.1-0.6l-0.3-0.4L429,139l-0.7,0.6l-0.9,1.4l-0.4,0.9l0.1,0.6l0.1,0.9l-0.2,0.4l-0.5,0.1l-0.4,0.5
	l-0.3,0.9l-0.7,0.5l-1,0.2l-1.1-0.4h-0.1l-1.3-1.1l-0.8-1l-0.3-1h-1.1l-1.9,0.9l-1.4,0.1l-1-0.6l-0.7-0.3l-0.7,0.2l-0.7,0.4
	l-0.6-0.2l-0.7-0.7l-1.1-0.5l-1.5-0.3l-1.1-0.8l-0.6-1.3l-0.6-0.9l-0.7-0.5l-0.8-0.1l-0.8,0.2l-0.6-0.1l-0.4-0.4h-0.6l-0.5,0.4v-4
	v-4v-4v-4v-4v-4v-4.1v-4.1l3.1-0.1l3.1-0.1l3.1-0.1l3.1-0.1l0.1-0.1l0,0l0.1,0.2l0.8,0.1l0.6,0.3l0.5,0.4l1.6,0.8l0.5,0.5l0.5,0.3
	h0.5l0.3-0.2l0.2-0.3h0.2l0.3,0.3l0.9,0.3v0.1l-2.5,0.6l-0.5,0.3l0.6,0.2h0.6l0.7-0.3h0.8l0.7,0.1l0.2-0.1l0.1-0.1l1.1,0.8l0.4,0.1
	l0.4-0.1l0.5-0.3l1-0.4l1.5-0.5l1.5-0.2l1.4,0.1l0.9-0.1l0.8-0.5l1.8-1.5l2-1.2l3.4-1.5l3.3-1.2v1v1.3v1.3v1.3v1.3v1.3v1.3v1.3v1.3
	v1.3v1.3v1.3L442.8,119z"/>
<path id="US-OK" class="st0" d="M310.1,168.7l0.2,1.6l0.2,1.6l0.2,1.6l0.2,1.6l0.2,1.6l0.2,1.6l0.2,1.6l0.2,1.6v1.2v1.3v1.3v1.2v1.2
	v1.2v1.2v1.2v1.2v1.2v1.2v1.2v1.2v1.2v1.2v1.2l-2.1-0.6l-0.5-0.4l-1-0.4l-0.9-0.8l-1.7-1.1l-0.7-0.3h-0.2l-0.3,0.5l-0.9,0.4h-0.5
	L302,198l-0.2-0.1l-0.1-0.3l-0.4-0.2l-0.3,0.2l-1.3,0.4l-0.2,0.3h-0.8l-0.7-0.2l-1.9,0.7l-0.6,0.5l-0.7,0.2l-0.3,0.5l-0.2-0.1
	l-0.7-0.7l-0.7-0.2l-1-0.6v-0.6l-0.1-0.1l-0.2-0.1h-0.2l-0.4,0.5l-0.3,0.1h-0.2l-1-0.3l-0.4-0.6l-0.2-0.2h-0.2l-0.4,0.2l-0.2,0.6
	l-0.2,0.2l-0.4,0.1v0.3l-0.3,0.9l-0.2,0.2h-0.3l-0.3-0.2l-0.2-0.3l-0.1-0.3l0.1-0.7l-0.1-0.2l-0.2-0.1l-0.5,0.3H285l-0.5,0.3
	l-0.3,0.1l-0.3-0.1l-0.5-0.5l-0.8-0.3l-0.3-0.6l-0.2-0.2h-0.2h-0.2l-0.3,0.2l-1,0.8l-0.4,0.3h-0.4l-0.4-0.1l-0.2-0.2V197l-0.2-0.3
	l-0.9-0.5l-0.2-0.5l-0.1-0.7l-1.1,0.1l-1.3-0.1l-0.6,0.6l-0.3,0.1l-0.4-0.1l-1.1-0.8l-1.2,0.2l-0.7-0.1l-1.6-0.6l-1.3-0.1l-0.5-0.1
	l-0.3-0.1l-0.1-0.9l-0.5-0.8l-0.2-0.2l-0.8-0.5h-0.1l-0.1,0.1l-0.2,0.6h-0.3l-1-0.2l-0.9,0.2l-0.5-0.3l-1.7-1.5l-0.7-0.4l-0.6-0.1
	v-1.4v-1.4v-1.4v-1.4V183v-1.4v-1.4v-1.4v-1.4V176v-1.4v-1.4v-1.4v-1.4v-0.3v-1.4h-1.8h-1.8h-1.8h-1.8h-1.8h-1.8H247h-1.8h-1.8h-1.8
	H240h-1.8h-1.8h-1.8h-1.8H231v-1.5v-1.5v-1.5v-1.5h2.3h2.3h2.3h2.3h2.2h2.2h2.2h2.2h2.2h2.2h2.2h2.2h2.2h2.2h2.2h2.2h2.2h2.2h2.2
	h2.2h2.2h2.2h2.2h2.2h2.2h2.2h2.2h2.2h2.2h2.2h2.2h2.2h2.2h2.2h2.2h2.2v1.5v1.5v1.5L310.1,168.7z"/>
<path id="US-OR" class="st0" d="M40.8,47.8l0.9-0.3l0.7,0.3l0.9,0.6l0.9,1.9l0.9,3.1l0.2,1L46,55h0.8l3.4,0.5h0.5l0,0l0.6-0.1
	l1.9-1.2l2.1-0.4l2.5,0.1l1.5,0.3l0.5,0.6l1.3,0.1l3.1-0.7l3.4-0.5l1.8-0.5l2.1-1l4.8-1.3l2.4-0.1l1.2-0.5l0.3-0.3h0.2H83h2.5H88
	h2.5H93h2.5H98h2.3l0.3,0.6l1,1.2l1.4,1l0.9,1l0.4,1.1l-0.7,2.5l-1.8,3.8l-1,2.4l-0.2,1.1l-0.9,1.8L98.1,69l-0.8,1.9v1.2l0.5,0.7
	l1,0.2l0.7,0.4l0.4,0.6v0.6l-0.4,0.5l-0.1,0.5l0.2,0.5l-0.1,1l-0.6,2v0.1v2.9V85v2.9v2.9v2.8v2.8v2.8v2.8h-3.5h-3.5h-3.5h-3.5h-3.5
	h-3.5h-3.5h-3.5h-2.5h-2.5h-2.5h-2.5h-2.5h-2.5h-2.5h-2.5h-2.5h-2.5h-2.5h-2.5h-2.5h-2.5h-2.5h-2.6l-1.2-1.5l-0.5-2.3l-0.1-1
	l0.1-2.6l-0.4-1.1l-0.9-1.8l0.4-1.6l0.4-1l1-4.2l0.2-0.3h0.4l0.7-0.7l-0.3-0.2L30.1,84l0.5-1.7l0.5-1.5l0.3-0.5l0.2-4.7l0.3-3.6
	l0.5-1.2l-0.2-1.2l0.2-1.7l-0.1-1.7l1-8.3l-0.1-1l0.3-1.4l-0.3-3.6l0.1-4L33,47.4l-0.1-0.6l0.3-0.1l0.5,0.6h2.2l1.4-0.5l0.5,0.2
	l0.6,0.7l0.8,0.1L40.8,47.8z"/>
<path id="US-PA" class="st0" d="M497.6,110.1l-0.7,0.4l-0.3,0.3l-0.3,0.4l-0.7,1.4l-1.1,1.3l-0.9,0.7v0.3l0.5,1.1v0.3l-0.3,0.7
	l-0.6,0.3l-0.1,0.4l-0.1,0.7v1.2l0.2,0.2l0.7,0.4l0.6,1.5l0.5,0.2l2.3,3.1l-1.6,0.9l-1.1,0.8l-0.6,0.4l-0.9,1.1l-1.4,0.4l-0.8,0.4
	l-0.2,0.2l-0.8-0.3h-1.2l-0.4,0.2l-0.3,0.3l-0.7,1h-2.2H483h-2.2h-2.2h-2.2h-2.2H472h-2h-2.2h-2.2h-2.2h-2.2H459h-2.2h-2.2h-2.2
	h-1.2H450h-1.2h-1.2h-1.2h-1.2H444h-1.2V129v-1.4v-1.4v-1.4v-1.4V122v-1.4v-1.4v-1.3v-1.3v-1.5v-1.3v-1.3v-1.3v-1.3v-1.3v-1.3V106
	v-1.3v-1.3v-1l1.8-0.7l0.8-0.4l0.8-0.4l0.4-0.3l0.5-0.2l3-1.6v0.1v1.7v1.7h1.3h1.3h1.3h1.3h1.3h1.3h1.3h1.3h1.3h1.3h1.3h1.3h1.3h1.3
	h1.3h1.3h1.3h1.3h1.3h1.3h1.3h1.3h1.3h1.3h1.3h1.3h1.3h1.3h1.3h1.3h1.3h1.3l0.7,0.7l0.3,0.7l1.1,0.5l0.3,0.3v0.4l0.4,0.4l-0.1,0.7
	v0.6l0.1,0.7l0.3,0.7l0.4,0.6l0.4,0.4l1.7,0.6l0.3,0.4L497.6,110.1z"/>
<path id="US-RI" class="st0" d="M530.2,105.8l-0.3,0.3l-0.4-0.5l-0.2-0.5l-0.3-0.3l-0.3-0.1l0.3,1.2l-0.6,0.9l-0.2,2.3l-0.8,0.9
	l-2.3,0.6l-0.7-0.1l0.1-0.7l0.2-0.3v-0.8v-0.5v-0.9v-1v-1.1v-1v-0.7v-1v-0.7h0.7h1h0.9h0.6h0.7v0.6v0.9l0.4,0.1v0.7v0.5l0.3,0.3
	l0.3,0.3L530.2,105.8L530.2,105.8z M530.1,108.5l-0.5,0.3l-0.5-0.1l0.3-0.5l0.1-0.7l0.3-0.8l0.2-0.2l0.3-0.2L530.1,108.5z
	 M529,108.5l-0.3,0.2l-0.1-0.6l0.2-0.7h0.2l0.1,0.4L529,108.5L529,108.5z"/>
<path id="US-SC" class="st0" d="M461.2,198.8h-0.1l-2.5,1.7l-0.7,0.7l-2,2.8l-0.5,1.8L455,205l0.1-0.6v-0.5l-0.5,1l0.5,1.5l-0.4,0.6
	l-1.3,1l-0.7,0.2l-0.8,0.3l-0.3,1l-1.1,0.9l-0.7,0.4l-1.2-0.3l0.4,0.9l-0.4,0.7l-0.8,0.5l-1,0.3h-0.5l-0.5,0.2l-0.4,0.4l-0.9,0.4
	l-0.9-0.2l-1-0.1l-0.6,0.2l1,0.4l0.5,0.6l-0.1,0.8l-0.3,0.3l-0.6,0.4l-0.3-0.1l-0.2-0.4l-0.2-0.8l-0.3,0.2v0.4l-0.3,0.1l-0.9-1.2
	v0.9l0.3,0.7l0.3,0.4l0.3,0.2l0.1,0.3l-0.6,0.8l-0.3,0.2l-0.5,0.1l-0.3,0.5l0.1,0.4l-1.9-0.9l-0.6-0.8v-1l-0.4-1.2l-1.1-2l-0.8-0.6
	l-0.5-1.3l-0.5-2.3l-0.8-1.5l-1.1-0.7l-0.8-0.8l-0.4-0.9l-0.4-0.6l-0.4-0.3l-0.2-0.5v-0.7l-0.7-0.8l-1.9-1.6l-0.5-1l-0.9-1l-2.2-2
	l0,0l-2.2-4l0,0l-0.3-0.8l-0.5-0.3l-0.7-0.1l-0.7-0.4l-1.1-1l0,0l-1.8-1.2l0.4-1.1l1.4-1.5l0.5-0.8h0.1h0.2l1.5-0.5l1.5-0.5h0.3
	l0.9-0.5l1.8-0.6l0.7-0.4l0.3,0.1l1.5,0.1l1.5,0.1l1.5,0.1l1.5,0.1l1.5,0.1l1.5,0.1l1.5,0.1l1.5,0.1l0.3,0.1l0.1,0.2v0.5l0.1,0.3
	l1-0.5l0.5,0.6l0.8,1.1v0.6v0.9h1.3h1.3h1.3h1.3h1.3h1.3h1.3h1.3l1.3,1.3l1.3,1.3l1.3,1.3l1.3,1.3l1.3,1.3l1.3,1.3l1.3,1.3
	L461.2,198.8z"/>
<path id="US-SD" class="st0" d="M291.8,50.7l-0.3,1.3l-0.2,0.6l-0.5,0.6l-1.4,1.3l-0.3,0.5v0.4l0.3,0.5l0.7,1.2l0.4,0.5l1.6,0.8
	l0.7,1v3v3v3v3v2.7v3V80v2.9h-1.4l0.2,0.8l0.4,0.8l0.1,0.5l-0.1,0.4l-0.3,0.3l0.1,0.5l0.1,0.2l0.6,0.3l0.2,0.5l0.1,0.5v0.4l-0.4,0.7
	l-0.1,1l-0.5,1.4l-0.5,0.9l-0.1,0.4v0.3l0.8,0.9v0.4l0.3,0.5l0.2,1l-0.7-0.2l-0.7-0.5l-0.4-0.9l-1.2-0.8l-2-0.8l-1.4-0.7l-0.7-0.6
	l-1.7-0.3l-2.7,0.1l-1.7,0.3l-0.8,0.6l-1.7-0.6l-2.8-1.9h-3.7H267h-3.3h-3.3h-3.3h-3.3h-3.3h-3.3h-3.3H241h-3.3h-3.3h-3.3H228h-3.3
	h-3.3v-3.2v-3.2v-3.2v-3.3v-3.3v-3.3v-3.3v-3.3h0.1h0.1h0.1h0.1l0,0l0,0l0,0l0,0v-3.1V57v-3.1v-3.1h2.2h2.2h2.2h2.2h2.2h2.2h2.2h2.2
	h2.2h2.2h2.2h2.2h2.2h2.2h2.2h2.2h2.2h2.2h2.2h2.2h2.2h2.2h2.2h2.2h2.2h2.2h2.2h2.2h2.2h2.2h2.2L291.8,50.7z"/>
<path id="US-TN" class="st0" d="M413.1,167.5h2.1h4.6h3.2h2.7h1.6h2l0.4-0.2h1h1.3l-0.4,0.9v0.6l-0.2,0.9v0.6h-0.7l-0.4,0.2
	l-0.5,0.4l-1.3,2.1l-0.5,0.2l-0.8-0.5l-1.1,0.2l-0.7,0.4l-1,1l-0.4,0.3l-0.3,0.1h-0.2l-0.1-0.2l-0.1-0.5l-0.1-0.2h-0.3l-0.5,0.2
	l-0.5,0.3l-0.5,0.6h-0.7l-0.1,0.2l-0.2,0.7l-0.3,0.5l-0.4,0.4l-1.2,0.3l-1.5,1.1l-2.1,1.1l-2,0.3l-0.8,0.2l-0.6,0.3l-1.3,1.2
	l-0.5,1.5l-0.6,0.3h-1l-0.3,0.1l-0.3,0.6l-0.3,2.4h-3.1H401h-3h-3.1h-1.5h-1.5h-1.5h-1.5h-1.5h-1.5h-1.5h-1.5h-1.5h-1.5h-1.5h-1.5
	h-1.5h-1.5h-1.5h-1.5h-0.1l0.1,0.1l0.2,0.2h-2.6H366h-2.5H361h-2.5H356h-2.5h-2.4l0,0l0.3-0.5l1.1-0.8l0.5-1l-0.1-1.3l0.4-1.1l0.9-1
	l0.4-1l-0.2-1l0.5-0.8l1.1-0.6l0.2-0.3v-0.2v-0.2v-0.1v-0.2l0.2-0.1l0.3-0.1l0.1-0.2v-0.3l-0.2-0.5v-0.2l0.1-0.3l0.5-0.9l0.1-0.7
	l-0.4-0.6l0.2-0.3l0.2-0.1h0.3l0.1-0.1v-0.2l-0.3-0.4l0.1-0.3l0.5-0.3l0.1-0.6l-0.2-0.9h0.7v0.1l0.1,0.1l0.2-0.1l0,0h1.9h1.6h1.6
	h1.6h1.6h1.6h1.6h1.5l0,0v-1l-0.4-1.2l0,0l1.3,0.1l0.8,0.1l0.3,0.4l3.1-0.1l3.1-0.1l3.1-0.1l3.1-0.1l3.3,0.1l3.3,0.1l3.3,0.1
	l3.3,0.1l3.3,0.1l3.3,0.1l3.3,0.1l3.3,0.1h0.1h0.1h0.1h0.1h0.1h0.1L413.1,167.5L413.1,167.5z"/>
<path id="US-TX" class="st0" d="M311.3,201.4l0.5,0.5l0.4,0.2l0.1,0.2l0.2,0.1h0.2l0.4-0.3l0.5,0.1l0.4-0.1l0.9,0.1l0.5,0.3v1.5v1.5
	v1.5v1.5v1.4v1.4v1.4v1.4v1.4v1.4v1.4v1.4l1.3,1.3l0.6,0.9l0.2,0.5l0.1,1.6l0.1,0.4l0.7,0.6v0.4l0.7,1.2v0.5l0.7,1.2l0.4,0.3
	l0.1,0.8l0.2,0.6l-0.3,0.5l0.1,0.6l-0.2,0.6l-0.1,0.8l-0.4,1.2l-0.4,0.6l-0.5,1.1v0.9l-0.3,1v0.4l0.3,0.7l0.1,1.8l-0.2,0.4l-0.6,1.1
	h-0.5l-1,1.8l0.6,1v0.4l-2,0.2l-4.5,2l-1.7,1.1l0.1-0.4l2.1-1.4l-0.7-0.2l-1.2,0.3l-0.4-0.1l0.5-1.2l-0.2-1h-0.8l-0.5,0.8h-0.4
	l-0.5-0.3l-0.4,0.1l0.3,1.8l0.5,0.8l0.5,1l-1.2,1.2l-1.1,1l-0.1,1l-1.1,1.2l-1.1,0.7l-2.5,1.6l-0.7,0.3l-1.1,0.8l-1.6,0.6l-1.5,0.9
	l-0.5,0.1l1-0.8l1.1-0.8l-1,0.1l-1.5-0.3H294v0.3l-0.7,0.4l-0.7-0.6l-0.3-0.4l-0.2-0.3l-0.3-0.1l-0.3,0.2l1.1,2.3l0.5,0.1l0.5,0.2
	l-0.6,0.5l-0.7,0.4l-1.1,0.3l-0.9-0.9l-0.2,1.1l-0.1,1.1l-0.3,0.3l-0.5,0.4l-0.3-0.3l-0.1-0.4l-0.3,0.4l-0.5,0.3h-0.8l-0.6,0.2v0.4
	l0.2,0.4l1-0.3l-0.4,1.1l-0.9,1.1l-0.8,0.3l-1.2-0.2l-0.3,0.1l-0.3,0.2l1.3,1.8l-0.9,2.7l-0.5,1l-0.4,0.1H283l-1.5-0.8l-0.8-0.7
	l0.7,1.8l2,0.5l0.1,0.7v0.6l-0.4,0.7l-0.4,0.9l0.3,0.6l0.3,1.5l0.3,0.7l0.3,2.2l0.3,0.9l1.8,3.4h0.6l0.1,0.4l-0.1,0.7l-1.3,0.2
	l-0.5,0.3l-0.1,0.3l-0.1,0.2h-0.2l-0.6-0.2l-1.4-1l-2-0.6l-2.7-0.2l-1.8-0.5l-1-0.7l-1-0.4l-1.1-0.1l-0.9-0.4l-0.7-0.7l-1-0.4
	l-1.3-0.2l-0.9-0.5l-0.6-1.2l0,0l-0.5-2l-0.7-1.3l-1.3-1.6l-0.1-0.2l0,0v-0.3l0.2-0.9l-0.1-0.7l-0.4-0.5l-0.1-0.6l0.2-0.6v-0.7
	l-0.2-0.8l-0.8-0.9l-1.5-1l-1.3-1.5l-1-1.9l-1-1.3l-1-0.7l-0.7-0.9l-0.4-1.1l-0.1-0.6l0.2-0.2l-0.6-1.2l-1.4-2.2l-0.8-1.6l-0.2-1
	l-0.9-1.2l-1.6-1.4l-0.9-0.9l-0.2-0.6l0,0l-2.5-1.9l-0.7-1.2l-0.6-0.4h-0.7l-0.3-0.1v-0.3h-0.2l-0.4,0.2h-1.3l-2.3-0.1l-1.6-0.3
	l-1-0.5l-0.7,0.1l-0.4,0.6l-0.8,0.4l-1.3,0.2l-1.1,1.2l-0.9,2.2l-0.4,1.4l0.1,0.6l-0.3,0.5l-0.6,0.3l-0.6,0.6l-0.6,1l-0.7,0.5h-0.8
	l-1.6-0.8l-2.3-1.5l-1.8-0.9l-1.3-0.3l-1.1-0.7l-1-1l-0.9-0.7l-0.8-0.3l-1-1.1l-1.1-1.9l-0.6-1.5v-1.6l-1.5-3.4l-0.8-1.5l-0.6-0.7
	l-1.1-0.8l-1.7-1l-2.2-1.9l-2.8-2.8l-2-1.7l-1.2-0.6l-1-1l-0.9-1.5l-0.8-0.9h-0.1l-1.1-0.6l0,0l-1-2h0.1h2.1h2.1h2.1h2.1h2.1h2.1
	h2.1h2.1h2.1h2.1h2.1h2.1h2.1h2.1h2.1h2.1V217v-3.1v-3.1v-3.1v-3.2v-3.2v-3.2v-3.2v-3.2v-3.2v-3.2v-3.2v-3.2v-3.3v-3.3V169h0.4h1.8
	h1.8h1.8h1.8h1.8h1.8h1.8h1.8h1.8h1.8h1.8h1.8h1.8h1.8h1.8h1.8v1.4v1.4v1.4v1.4v1.4v1.4v1.4v1.4v1.4v1.4v1.4v1.4v1.4v1.4v1.4v1.4
	l0.5,0.1l0.7,0.4l1.7,1.5l0.5,0.3l0.9-0.2l1,0.2h0.3l0.2-0.6l0.1-0.1h0.1l0.8,0.5l0.2,0.2l0.5,0.8l0.1,0.9l0.3,0.1l0.5,0.1l1.3,0.1
	l1.6,0.6l0.7,0.1l1.2-0.2l1.1,0.8l0.4,0.1l0.3-0.1l0.6-0.6l1.3,0.1l1.1-0.1l0.1,0.7l0.2,0.5l0.9,0.5l0.2,0.3v0.8l0.2,0.2l0.4,0.1
	h0.4l0.4-0.3l1-0.8l0.3-0.2h0.2h0.2l0.2,0.2l0.3,0.6l0.8,0.3l0.5,0.5l0.3,0.1l0.3-0.1l0.5-0.3h0.4l0.5-0.3l0.2,0.1l0.1,0.2l-0.1,0.7
	l0.1,0.3l0.2,0.3l0.3,0.2h0.3l0.2-0.2l0.3-0.9v-0.3l0.4-0.1l0.2-0.2l0.2-0.6l0.4-0.2h0.2l0.2,0.2l0.4,0.6l1,0.3h0.3l0.3-0.1l0.4-0.5
	l0.2-0.1l0.2,0.1l0.1,0.1v0.6l1,0.6l0.7,0.2l0.7,0.7l0.2,0.1l0.3-0.5l0.7-0.2l0.6-0.5l1.9-0.7l0.7,0.2h0.8l0.2-0.3l1.3-0.4l0.3-0.2
	l0.4,0.2l0.1,0.3l0.2,0.1l0.9,0.2h0.5l0.9-0.4l0.4-0.5h0.2l0.7,0.3l1.7,1l0.9,0.8l1,0.4l0.5,0.4L311.3,201.4L311.3,201.4z
	 M306.1,250.8l-0.5,0.1l2-1.7l0.4-0.5h0.5l-0.9,0.9L306.1,250.8z M289.9,261.4h-0.3l0.4-0.6l0.7-0.3l1.5-1.1l0.6-0.1l0.3-0.4
	l0.1-0.1l-0.1,0.5l-1.2,0.7L289.9,261.4L289.9,261.4z M287.5,264.1h-0.2l0.5-0.9l0.1-0.3l0.8-1.1l0.4-0.2l0.2,0.5l-0.8,0.8
	L287.5,264.1L287.5,264.1z M284.3,270.4l-0.3,0.7l0.1-0.9l0.8-2.1l1.5-2.7l0.7-0.5l-1.8,3L284.3,270.4L284.3,270.4z M286,282.4
	l-0.1,0.5l-0.8-2.3l-1.3-5.1v-2.9l0.2-1l0.3,4.2l1.4,5.3L286,282.4L286,282.4z"/>
<path id="US-UT" class="st0" d="M155.4,102.1v1.6v1.6v1.6v1.6v1.6v1.6v1.6v1.6h2.3h2.4h2.4h2.4h2.4h2.3h2.4h2.4v3.1v3.1v3.1v3.1v3v3
	v3v3v3v3v3v3v3v3v3v2.9h-2.9h-2.9h-2.9h-2.9h-2.9H157h-2.9h-2.9h-2.9h-2.9h-2.9H139h-2.9h-2.9h-2.9h-2.9v-1.8v-1.8v-1.8V156v-1.8
	v-1.8v-1.9v-1.9v-1.9v-1.9v-1.9V141v-1.9v-1.9v-1.9v-1.9v-2.3v-1.9v-1.9v-1.9v-1.9v-1.9v-1.9v-1.9v-1.9V114v-2v-2v-2v-2v-2v-2h1.8
	h1.8h1.8h1.8h1.8h1.8h1.8h1.8h1.8h1.8h1.8h1.8h1.8h1.8h1.8L155.4,102.1z"/>
<path id="US-VA" class="st0" d="M469.1,134.9l0.5,0.5l1.3,0.5l0.5,0.5l-0.2,0.5v0.4l0.2,0.4l1.7,0.7l1,1l0.6,0.3l0.2,0.1l0.5,0.3
	l0.2,0.3l-0.1,1.4l-0.4,0.7l-0.7,0.5l-0.9,0.9l-0.2,0.8l-0.3,1.6l0.4,0.5l0.4,0.1l1.2-0.4l0.6,0.2l1.3,1.9l2.5,0.8l0.9,0.5l0.7,1
	l1.1,0.6l0.8,0.8v0.5l-0.3,0.6l-0.1,0.9l-0.4,0.5l-0.9,0.1l-0.5-0.1l-2.8-3l-0.3-0.3l-1-1.6l-1.2-0.9H475l1.8,1.6l0.7,1.1l1.3,1.5
	l0.9,0.7l0.7,1l0.6,0.5l1.7,0.7l-0.6,0.5l0.9,0.4l0.1,0.8l-0.1,0.9l-1.3-0.3v0.6l0.1,0.4l-0.6,0.3l-0.8-0.4l-2.1-2.3v0.3l0.2,0.4
	l1.2,1.5l1.1,0.9l0.9,0.4l0.7,0.8l0.3,0.5l0.2,0.7l-0.5,0.5l-0.6,0.3l-0.6-0.5l-0.4-0.5l-0.9-0.8l-0.3-0.9h-0.7l-2.9-1.2l-2.3-0.1
	l0.2,0.2l0.3,0.2l1.8,0.3l0.7,0.5l1.5,0.5l0.9,0.1l0.4,1.5l1.2,1l0.2,0.8l0.8,0.1l1.5-0.7l0.9,0.3l1.4,0.2l0.3,0.6l0.2,1.1l0.5,1.3
	l0.3,1.2h-0.3h-0.7h-2.3h-3.4h-3.4h-3.4h-3.4h-3.4h-3.4h-3.4h-3.4h-3.4h-3.4h-3.4h-3.4h-3.4h-3.4h-3.4l-0.2-0.2H431h-1l-0.4,0.2h-2
	H426h-2.7h-3.2h-4.6h-2.1l1-0.6l1.4-0.3l2.5-1l1-1l1.4-0.7l0.6-0.8l0.9-0.8l0.3-0.9l0.1-0.1l1.5-0.8l1.6-1l3.6-2.9l0.1,0.4l-0.1,0.4
	l0.3,0.5l0.3,0.8l0.3,0.5l0.4,0.4l0.7,0.3l0.9,0.6l0.7,0.2h0.2l0.8-0.6l0.6-0.3l0.7-0.6l1.2,0.8h0.5l1.1-0.4l1.1-0.1l0.3-0.1
	l0.4-0.3v-0.7l0.1-0.2l0.2-0.1h0.2l0.5,0.3h0.5l2-0.8l0.2,0.1l0.3,0.4l0.9-0.5l0.5-0.4l0.2-0.7l0.4-0.7l-0.1-0.3l-0.3-0.4l0.4-0.9
	l0.5-0.9l2-2.6l0.7-1.6l0.8-1l0.3-0.8l0.6-0.8l0.4-1.7l0.3-0.3l0.4-0.1l0.4,0.2l0.3,0.3l0.2,0.5l1,0.4h0.9l0.6-0.3l0.3-0.6l0.5-1.1
	l0.5-0.7l0.3-0.8l0.3-0.6l0.5-0.4h1.2l0.6-0.5l0.5-0.6l0.3-0.2h0.3l1-0.9l1.4-2l0.3-1.2l0.4-0.9l0.1-0.9l0.3-0.5l1.2,1l0.7,0.6
	l1.6,1.3l1.1,0.9l0.4-1L469.1,134.9L469.1,134.9z M492.4,150.6h0.3l0,0l-1,1.8l-0.4,0.2L492.4,150.6z M488.5,151.6l0.4-0.5l1.4-0.2
	l0.9-0.1l-2.1,4.7l0.1,0.9l-0.4,0.3l-0.6,0.2l-0.6,0.5l-0.4,0.6l-0.4,1.5l-0.8,1.6l-0.5-0.7l-0.1-0.6l0.2-1.6l0.8-2.6l0.9-1.6
	l0.7-0.8L488.5,151.6L488.5,151.6z"/>
<path id="US-VT" class="st0" d="M518.6,92.8h-0.9h-0.9h-0.9H515h-0.9h-0.9h-0.9h-0.9l-0.3-0.8l0.1-0.7v-0.9v-1.2v-1.3v-1.8v-1.2
	v-1.1v-1.5l-0.6-0.8l-0.2-0.1l-0.2,0.1l-0.4,0.5h-0.1l-0.1-0.1v-0.5l0.3-1.7v-0.5l-0.1-0.9l-0.4-2.1v-0.5l0.2-0.7l0.3-0.7l0.5-0.8
	l0.1-0.3v-1.3l0.1-1.2l-0.6-1.8l0.2-2.4l-0.2-1.1l0.2-1l-0.1-0.9h1.6h3.9h3.9h3.9h3.9l-0.2,0.3l0.2,1l-1,1.8v0.6l0.5,1.6v0.4
	l-0.2,0.2l-0.2,0.7l-0.3,0.4l-0.4,0.4l-1.3,1l-0.4,0.3l-1-0.1l-0.3,0.4l-0.3,2.4l-0.4,1.3l-0.1,0.6l-0.5,1.1l-0.5,1.2l-0.7,1
	l-0.4,1.2l-0.2,0.5l-0.2,0.8l-0.2,2.5l-0.3,1.4l-0.3,2.4l-0.2,0.6l-0.2,0.3l-0.3,1v0.4l0.1,0.3l0.5,0.8L518.6,92.8z"/>
<path id="US-WA" class="st0" d="M100.3,49.9H98h-2.5H93h-2.5H88h-2.5H83h-2.5h-0.2l-0.2,0.2l-1.2,0.5l-2.4,0.1L71.7,52l-2.1,1
	l-1.8,0.5L64.4,54l-3.1,0.7H60l-0.6-0.6l-1.5-0.3l-2.5-0.1l-2,0.4l-1.9,1.2l-0.6,0.1l0,0h-0.5L47,54.9h-0.8l-0.7-0.6l-0.2-1
	l-0.9-3.1l-0.9-1.9l-0.9-0.6l-0.7-0.3L41,47.7l-0.3-0.2h-0.5l-1-0.7l-0.6-0.7h-1.8l-0.4-0.4l-2,0.4l-0.6-0.5l-1,0.5l0.3-1.3v-1.6
	v-1.6l0.3,1.1l0.7,1.2l0.3-1.4l0.2-1.7L34,40.1l-1.1-0.5l-0.5-1.5l2.5-1.4l-1.4-0.3L33,35.8l-0.6-0.1v0.5l-0.2,0.6l-0.3-0.7l-0.1-1
	l-0.3-1.7l-1-2.7l-0.6-3.5l-0.8-1.8l-1.5-1.7l-0.4-1l-0.4-2.5l0.2-1.9L26.7,17l0.7,0.1l1.9,1l2.4,0.8l0.7,0.6l1.2,0.4l6.4,0.7
	l0.4-0.1l0.8-0.4h0.3l0.9,1l0.5,0.1h0.6L44,21l0.8-0.7l0.1,0.3v0.6l0.3,0.9l0.6,1.1l0.2,0.7l-1.2,2h-0.2v-0.7l-0.2-0.1l-2.2,3.4
	l-0.8,1.6l-0.1,0.7v0.4l0.3,0.1l0.7-0.2l1-0.7v-0.1l-1,0.2h-0.5l0.1-0.8l0.1-0.4l0.6-1.1l0.7-0.7l0.9-0.7l0.5-0.6l0.4-0.9l1-1
	l0.2-0.3v-0.9l0.1-0.2l0.5,0.1l0.2,1.5L47,25.1l-0.9,0.8L46,26.2l0.2,1.1l-0.1,0.1L46,27.7l-0.1,0.1l0.8,1.2l0.3,0.9v0.8l-0.2,1.5
	l-0.3,0.3l-0.4-0.1l-0.6-0.5v0.2L45,33.3l-0.2-0.1l-0.3-1.4l-0.2-0.1l-0.9,0.6l-0.3,0.6l-0.3,1l-0.4,0.5l1.1,0.1l1-0.2l0.8,0.5h0.3
	l0.7-0.5l0.2-0.3l0.6-1.5l0.3-0.3h0.4l0.4-0.2l0.6-0.8v-0.3L48.6,29l0.1-1l-0.1-0.3l-0.3-0.4V27l0.2-0.5V26l-0.2-0.5l0.1-0.5
	l0.6-1.1l0.1-0.5l0.7-1.1l-0.2-0.4l-0.5-0.5l-0.3-0.5l-0.3-0.7l-0.3-0.3L48.1,20l0.4,1.2l-0.1,0.1l-0.9-0.6l-0.1-0.6l-0.1-0.6
	l0.1-0.4l0.5-0.4l0.6-0.1v-0.4l-0.9-1.1l-0.5-0.5l-0.4-0.3l-0.5-0.1L46,16.1l-0.1-0.3l0.1-0.4l0.3-0.1l0.8,0.1l0.4-0.3v-0.5
	l-0.1-0.3v-1.6l-0.3-1.3l-0.2-0.2h-0.2l-0.2,0.2H46l-0.2-0.3l-0.3-0.8l-0.6-2h1h4h4h4h4h4h4h4h4h4h4h4h4h4h1v2.3v2.3v2.3v2.3v2.3
	v2.3v2.3v2.2v2.2V31v2.2v2.2v2.2v2.2V42v2.2l0.1,0l-0.1,0.3l0.3,0.9l0.6,1.3l0.2,0.9l-0.2,0.5l0.2,1L100.3,49.9L100.3,49.9z
	 M44.9,12.9l0.1,0.3l-0.4,0.3h-0.3L44,13l-0.2-0.1l0.2,0.7v0.3l-1-0.4l-0.2-0.4l0.3-0.4l0.5-0.4h0.2L44.9,12.9L44.9,12.9z
	 M42.8,15.3l0.3,0.5l-1-0.3l-0.4-0.3l-0.1-0.3l-0.3-0.8l0.1-0.3l0.5-0.1l0.8,1.1L42.8,15.3L42.8,15.3z M44.6,16.3l-0.2,0.1l-0.5-0.2
	l-0.3-0.3l-0.1-0.4l0.2-0.8l0.3-0.2h0.2l0.1,0.7l0.5,0.7L44.6,16.3z M46.9,20.2l0.5,1.8l0.2-0.8l1.3,1.3v0.6l-0.2,0.2l-0.3,0.1
	l-0.3-0.2l-0.2-0.5l-0.3-0.2l-0.6,0L46.7,22l-0.1-0.4v-1l-0.2-0.3l-0.3-0.1l-0.3-0.3l-0.5-0.7L45.2,19l0.2-0.6l0.5-1l0.4-0.5h0.2
	l0.3,0.3l0.3,0.5L47,18.1l-1.4,0.8v0.2l0.7,0.2l0.3,0.2L46.9,20.2L46.9,20.2z M47.6,28v0.3L47.1,28l-0.2-0.3V27l0.1-0.4l0.1-0.1
	l0.3,0.2l0.1,0.1L47.6,28L47.6,28z M48.6,30.8v0.3l-0.4,0.3L48,31.3v-0.4l-0.1-0.1l-0.4,0.5v-0.9l0.2-0.9h0.2l0.3,0.6L48.6,30.8
	L48.6,30.8z M44.3,33.4l-0.1,0.3h-0.1l-0.3-0.6v-0.4l0.3-0.3l0.3,0.8L44.3,33.4L44.3,33.4z"/>
<path id="US-WI" class="st0" d="M349.5,35.9l-0.3,0.2l-0.1-0.1l0.1-0.4l0.2-0.3l0.2-0.1l0.1,0.1v0.3L349.5,35.9L349.5,35.9z
	 M346.9,37.3l-0.1,0.1l-0.4-0.2V37l0.1-0.2h0.2l0.2,0.3L346.9,37.3L346.9,37.3z M349.7,41.8L349.7,41.8l0.2,0.6l0.5-0.1l0.2,0.3
	l0.3,0.1l0.5,0.2l0.3,0.6l0.3,0.6l0.3,0.6l0.3,0.6l1.2,0.3l1.2,0.3l1.2,0.3l1.2,0.3l1.2,0.3l1.2,0.3l1.2,0.3l1.2,0.3l0.7,0.4
	l0.7,0.4l0.7,0.4l0.7,0.4l1,0.1l0.9,0.2h1.3l1.3,0.3l1.9,0.6l0.5,0.5l0.1,0.4l-0.2,0.8l1.8,0.8l0.8,0.6l0.3,0.4v0.4l0.2,0.8
	l-0.2,0.4v0.8l-0.4,0.8l-0.1,0.4V58l0.1,0.2l0.2,0.1h0.7l0.7-0.3l0.3,0.1l0.1,0.1v0.2l-1.3,1.7v0.5l0.2,0.5l0.4,0.5l0.5,0.2v0.3
	l-0.2,0.7l-0.5,0.5l-1.4,0.8l-0.2,0.5V65l-0.9,1.5l-0.4,0.9l-0.3,1l0.1,0.6l0.5,0.3l0.2-0.2l0.3-0.5l0.4-0.4l0.6-0.4l0.4-0.5
	l0.6-1.3l0.7-0.8h0.4h0.1l0.7-0.3l0.6,0.1l0.3,0.5l0.3,0.4l0.1,0.3l-0.2,0.7l-0.3,0.8l-0.5,0.8l-0.4,1.2l-0.4,1.6l-0.1,1.2l0.2,0.8
	l-0.2,0.7l-0.6,0.6l-0.5,0.9l-0.4,1.1l-0.2,0.9v0.7l0.1,0.5l0.2,0.7v0.4l-0.7,1.6l-0.3,0.8v0.6l-0.2,0.6l-0.5,1.2l-0.2,0.7v0.6
	l0.1,1l-0.1,0.3v0.3l0.1,0.2V88l-0.1,0.5v0.4l0.2,0.3l0.2,0.5l0.1,0.7L374,91l0.3,0.5v0.7l-0.2,0.9l-0.1,1.8v0.6h-1.2h-4.2h-4.2
	h-4.2H356h-4.2h-4.3l-0.1-0.1l-0.3-1.1l-1-0.8l-1.6-0.5l-1-0.9l-0.5-1.2l-0.3-1.3l-0.1-1.5l0.1-1.3l0.4-1l-0.1-0.7l-0.6-0.4
	l-0.4-0.5l-0.2-0.6l-0.1-0.8l-0.3-3.8l-0.4-1.8l-0.6-0.7l-1.2-0.8l-1.9-0.9l-1.2-0.9l-0.7-1.2l-1.3-1.5l-0.9-0.6l-0.9-0.2l-0.7-0.5
	l-0.5-0.7l-0.7-0.5l-0.9-0.2l-1-0.6l-1.2-1.1v-0.1l-0.3-0.8l0.1-0.4l0.2-1.5v-0.5l-0.3-1.4l0.3-0.5l-0.1-1.7l0.1-0.5l0.6-1.4v-0.7
	l-0.2-0.8l-0.5-0.7l-1.3-0.7v-0.9l0.2-0.6l0.8-1.2l0.5-1.1l0.4-0.5l2.5-1.6l0.5-0.1l0.4-0.5l0.3-0.2v-2v-2v-2v-2l0.6-0.1l0.3-0.5
	l0.7-0.8h0.2l0,0l0.3,0.4l0.8,0.5L335,40l0.8-0.1L339,39l1.3-0.6l1.3-1h0.1l0.5,0.2l0.2,0.1l1.7-1.2l0.6-0.1h0.4l0.5,0.5l0.1,0.3
	l-0.2,0.5l-0.5,0.8l-0.2,0.7v0.5l-0.2,0.6l-0.5,0.8l0.2,0.2l1.4-0.6l0.2-0.2v-0.1l-0.1-0.2l0.2-0.1l1.1,0.8l0.8,0.4l0.6,0.2
	L349.7,41.8L349.7,41.8z M348.4,37.4l-0.3,0.1l-0.7-0.1v-0.2l0.7-0.3l0.3-0.1l0.1,0.1L348.4,37.4L348.4,37.4z M346.8,39.2l-0.5,0.2
	h-0.2l0.1-0.3l0.3-0.3l1.3-0.8h0.2l0.1,0.2l-0.6,0.4l-0.2,0.2V39L346.8,39.2L346.8,39.2z M383.1,58.6l-0.3,0.1h-0.5l-0.2-0.3
	l0.3-0.8l0.1,0.1h0.5l0.2,0.1V58L383.1,58.6L383.1,58.6z M381.9,60.1l-0.2,0.2l-0.3-0.1l-0.1,0.3l0.1,0.6l-0.1,0.3H381v0.1l0.2,0.3
	v0.3l-0.2,0.3l-0.2,0.1h-0.2l-0.3,0.4l-0.3,0.8l-0.1,0.4l0.1,0.1l-0.1,0.3l-0.9,1.1l-0.3,0.1l-0.4-0.2l-0.3-0.3l-0.2-0.5v-0.4
	l0.1-0.3l0.8-1l0.3-0.7l0.2-0.8l0.3-0.5l0.5-0.2l0.4-0.5l0.3-0.7l0.4-0.3l0.4,0.1l0.2,0.3L381.9,60.1L381.9,60.1z"/>
<path id="US-WV" class="st0" d="M452.6,130.3v1.6v1.6v1.5v1.5l1.2-0.9l0.6-0.3l2-2h0.3l0.7,0.3l1.5-1.4l0.2-0.5l0.2-0.2h0.2l0.1,0.1
	l-0.1,0.3l0.1,0.1l0.6,0.3l0.8,0.2h0.1h0.8l0.3-0.3l0.2-0.5l0.3-0.3l0.8-0.1l1.4-0.6l0.8,0.1l0.7,0.6l0.7,0.3h0.7l0.3,0.1l-0.2,0.3
	l0.2,0.3l0.5,0.4l0.2,0.3l-0.2,0.3l0.1,0.2l0.3,0.2l0.2,0.3v0.5l0.1,0.1l-0.6,1.5l-0.4,1l-1.1-0.9l-1.6-1.3l-0.7-0.6l-1.2-1
	l-0.3,0.5l-0.1,0.9l-0.4,0.9l-0.3,1.2l-1.4,2l-1,0.9h-0.3l-0.3,0.2l-0.5,0.6l-0.6,0.5h-1.2l-0.5,0.4l-0.3,0.6l-0.3,0.8l-0.5,0.7
	l-0.5,1.1l-0.3,0.6l-0.6,0.3h-0.9l-1-0.5l-0.2-0.5l-0.3-0.3l-0.4-0.2h-0.4l-0.3,0.3l-0.4,1.7l-0.6,0.8l-0.3,0.8l-0.8,1l-0.7,1.6
	l-2,2.6l-0.5,0.9l-0.4,0.9l0.3,0.4l0.1,0.3l-0.4,0.7l-0.2,0.7l-0.5,0.4l-0.9,0.5l-0.3-0.4l-0.2-0.1l-2,0.8h-0.5l-0.5-0.3h-0.2
	l-0.2,0.1l-0.1,0.2v0.7l-0.4,0.3l-0.3,0.1l-1.1,0.1l-1.1,0.4h-0.5l-1.2-0.8l-0.7,0.6l-0.6,0.3l-0.7,0.6h-0.2l-0.7-0.2l-0.9-0.6
	l-0.7-0.3l-0.4-0.4l-0.3-0.5l-0.3-0.8l-0.3-0.5l0.1-0.4l-0.1-0.4l-1.3-0.4l-1.7-1.4l-1.1-1.7l-0.3-0.8l-0.4-0.5l-0.1-0.5l-1-1.4
	l-0.3-0.6v-0.4l0.3-0.7l0.1-0.3l-0.1-1.8l-0.2-0.3l1.1,0.4l1-0.2l0.7-0.5l0.3-0.9l0.4-0.5l0.5-0.1l0.2-0.4l-0.1-0.9l-0.1-0.6
	l0.4-0.9l0.9-1.4l0.7-0.6l0.5,0.3l0.3,0.4l0.1,0.6l0.1,0.1h0.1l0.4-0.5l0.3-0.2h0.1h0.1v-0.3l-0.3-0.9v-0.5l0.3-0.2l0.3-0.6l0.3-1
	l0.4-0.5h0.5l0.5-0.4l0.6-0.8l0.5-0.2l0.4,0.3h0.6l0.7-0.3l1.2-0.8l1.7-1.4l0.8-1.1v-0.9l0.6-2.1l1.3-3.4l0.6-2.2v-1l-0.2-0.8
	l-0.3-0.6l0.2-0.5l1.1-0.5v1.4v1.4v1.4v1.4v1.4v1.4v1.4v1.4h1.2h1.2h1.2h1.2h1.2h1.2h1.2L452.6,130.3z"/>
<path id="US-WY" class="st0" d="M221.5,89.3v3.2v3.2v3.2v3.2v3.2v3.1v3.1v3.1h-3h-3h-3h-3h-3h-3h-3h-3h-3h-3h-3h-3h-3h-3h-3h-3h-2.4
	h-2.4h-2.3H164h-2.4h-2.4h-2.4h-2.3V113v-1.6v-1.6v-1.6v-1.6V105v-1.6v-1.6v-2v-2v-2v-2v-2v-2v-2v-2v-2v-2v-2v-2v-2v-2v-2v-2v-1.7
	v-1.6v-1.7v-1.7h2.1h2.1h2.1h2.1h2.1h2.1h2.1h2.1h2.1h2.1h2.1h2.1h2.1h2.1h2.1h2.1h2.1h2.1h2.1h2.1h2.1h2.1h2.1h2.1h2.1h2.1h2.1h2.1
	h2.1h2.1h2.1h2.1v3.3v3.3V73v3.3v3.3v3.2V86L221.5,89.3z"/>
<g>
	<g>
		<polyline class="st2" points="465.8,136.7 472.6,130 479.3,136.7 		"/>
		<path class="st2" d="M477.5,139.7c0.9-0.9,1.4-1.9,1.8-3c0.7-2.4,0.1-5.1-1.8-7c-2.7-2.7-7.2-2.7-9.9,0c-1.9,1.9-2.5,4.6-1.8,7
			c0.3,1.1,0.9,2.1,1.8,3l5,5L477.5,139.7z"/>
	</g>
	<g>
		<polyline class="st2" points="453.9,139.1 460.7,132.4 467.4,139.1 		"/>
		<path class="st2" d="M465.6,142.1c0.9-0.9,1.4-1.9,1.8-3c0.7-2.4,0.1-5.1-1.8-7c-2.7-2.7-7.2-2.7-9.9,0c-1.9,1.9-2.5,4.6-1.8,7
			c0.3,1.1,0.9,2.1,1.8,3l5,5L465.6,142.1z"/>
	</g>
	<g>
		<polyline class="st2" points="429.8,249.4 436.5,242.7 443.3,249.4 		"/>
		<path class="st2" d="M441.5,252.4c0.9-0.9,1.4-1.9,1.8-3c0.7-2.4,0.1-5.1-1.8-7c-2.7-2.7-7.2-2.7-9.9,0c-1.9,1.9-2.5,4.6-1.8,7
			c0.3,1.1,0.9,2.1,1.8,3l5,5L441.5,252.4z"/>
	</g>
	<g>
		<polyline class="st2" points="296.3,239.2 303,232.5 309.8,239.2 		"/>
		<path class="st2" d="M308,242.2c0.9-0.9,1.4-1.9,1.8-3c0.7-2.4,0.1-5.1-1.8-7c-2.7-2.7-7.2-2.7-9.9,0c-1.9,1.9-2.5,4.6-1.8,7
			c0.3,1.1,0.9,2.1,1.8,3l5,5L308,242.2z"/>
	</g>
	<g>
		<polyline class="st2" points="277.3,222.1 284,215.4 290.8,222.1 		"/>
		<path class="st2" d="M289,225.1c0.9-0.9,1.4-1.9,1.8-3c0.7-2.4,0.1-5.1-1.8-7c-2.7-2.7-7.2-2.7-9.9,0c-1.9,1.9-2.5,4.6-1.8,7
			c0.3,1.1,0.9,2.1,1.8,3l5,5L289,225.1z"/>
	</g>
	<g>
		<polyline class="st2" points="277.3,277.2 284,270.4 290.8,277.2 		"/>
		<path class="st2" d="M289,280.1c0.9-0.9,1.4-1.9,1.8-3c0.7-2.4,0.1-5.1-1.8-7c-2.7-2.7-7.2-2.7-9.9,0c-1.9,1.9-2.5,4.6-1.8,7
			c0.3,1.1,0.9,2.1,1.8,3l5,5L289,280.1z"/>
	</g>
	<g>
		<polyline class="st2" points="71.5,193.8 78.2,187 85,193.8 		"/>
		<path class="st2" d="M83.2,196.7c0.9-0.9,1.4-1.9,1.8-3c0.7-2.4,0.1-5.1-1.8-7c-2.7-2.7-7.2-2.7-9.9,0c-1.9,1.9-2.5,4.6-1.8,7
			c0.3,1.1,0.9,2.1,1.8,3l5,5L83.2,196.7z"/>
	</g>
	<g>
		<polyline class="st2" points="60.2,175 67,168.3 73.7,175 		"/>
		<path class="st2" d="M72,178c0.9-0.9,1.4-1.9,1.8-3c0.7-2.4,0.1-5.1-1.8-7c-2.7-2.7-7.2-2.7-9.9,0c-1.9,1.9-2.5,4.6-1.8,7
			c0.3,1.1,0.9,2.1,1.8,3l5,5L72,178z"/>
	</g>
	<g>
		<polyline class="st2" points="85.1,193.3 91.9,186.5 98.6,193.3 		"/>
		<path class="st2" d="M96.9,196.2c0.9-0.9,1.4-1.9,1.8-3c0.7-2.4,0.1-5.1-1.8-7c-2.7-2.7-7.2-2.7-9.9,0c-1.9,1.9-2.5,4.6-1.8,7
			c0.3,1.1,0.9,2.1,1.8,3l5,5L96.9,196.2z"/>
	</g>
	<g>
		<polyline class="st2" points="41.3,25.4 48,18.6 54.8,25.4 		"/>
		<path class="st2" d="M53,28.3c0.9-0.9,1.4-1.9,1.8-3c0.7-2.4,0.1-5.1-1.8-7c-2.7-2.7-7.2-2.7-9.9,0c-1.9,1.9-2.5,4.6-1.8,7
			c0.3,1.1,0.9,2.1,1.8,3l5,5L53,28.3z"/>
	</g>
</g>
<g>
	<polyline class="st3" points="42,25.3 48,19.2 54.1,25.3 	"/>
	<path class="st3" d="M52.5,28c0.8-0.8,1.3-1.7,1.6-2.7c0.6-2.2,0.1-4.6-1.6-6.3c-2.5-2.5-6.5-2.5-9,0c-1.7,1.7-2.2,4.1-1.6,6.3
		c0.3,1,0.8,1.9,1.6,2.7l4.5,4.5L52.5,28z"/>
</g>
<g>
	<polyline class="st3" points="85.8,193.2 91.9,187.1 98,193.2 	"/>
	<path class="st3" d="M96.4,195.9c0.8-0.8,1.3-1.7,1.6-2.7c0.6-2.2,0.1-4.6-1.6-6.3c-2.5-2.5-6.5-2.5-9,0c-1.7,1.7-2.2,4.1-1.6,6.3
		c0.3,1,0.8,1.9,1.6,2.7l4.5,4.5L96.4,195.9z"/>
</g>
<g>
	<polyline class="st3" points="296.9,239.2 303,233.1 309.1,239.2 	"/>
	<path class="st3" d="M307.5,241.8c0.8-0.8,1.3-1.7,1.6-2.7c0.6-2.2,0.1-4.6-1.6-6.3c-2.5-2.5-6.5-2.5-9,0c-1.7,1.7-2.2,4.1-1.6,6.3
		c0.3,1,0.8,1.9,1.6,2.7l4.5,4.5L307.5,241.8z"/>
</g>
<g>
	<polyline class="st3" points="466.5,136.5 472.6,130.4 478.6,136.5 	"/>
	<path class="st3" d="M477,139.2c0.8-0.8,1.3-1.7,1.6-2.7c0.6-2.2,0.1-4.6-1.6-6.3c-2.5-2.5-6.5-2.5-9,0c-1.7,1.7-2.2,4.1-1.6,6.3
		c0.3,1,0.8,1.9,1.6,2.7l4.5,4.5L477,139.2z"/>
</g>
<g>
	<polyline class="st3" points="454.6,139.1 460.7,133 466.8,139.1 	"/>
	<path class="st3" d="M465.2,141.8c0.8-0.8,1.3-1.7,1.6-2.7c0.6-2.2,0.1-4.6-1.6-6.3c-2.5-2.5-6.5-2.5-9,0c-1.7,1.7-2.2,4.1-1.6,6.3
		c0.3,1,0.8,1.9,1.6,2.7l4.5,4.5L465.2,141.8z"/>
</g>
<g>
	<polyline class="st3" points="60.9,175 67,168.9 73.1,175 	"/>
	<path class="st4" d="M71.5,177.6c0.8-0.8,1.3-1.7,1.6-2.7c0.6-2.2,0.1-4.6-1.6-6.3c-2.5-2.5-6.5-2.5-9,0c-1.7,1.7-2.2,4.1-1.6,6.3
		c0.3,1,0.8,1.9,1.6,2.7l4.5,4.5L71.5,177.6z"/>
</g>
<g>
	<polyline class="st3" points="277.9,277.1 284,271 290.1,277.1 	"/>
	<path class="st4" d="M288.5,279.8c0.8-0.8,1.3-1.7,1.6-2.7c0.6-2.2,0.1-4.6-1.6-6.3c-2.5-2.5-6.5-2.5-9,0c-1.7,1.7-2.2,4.1-1.6,6.3
		c0.3,1,0.8,1.9,1.6,2.7l4.5,4.5L288.5,279.8z"/>
</g>
<g>
	<polyline class="st3" points="430.4,249.4 436.5,243.3 442.6,249.4 	"/>
	<path class="st4" d="M441,252c0.8-0.8,1.3-1.7,1.6-2.7c0.6-2.2,0.1-4.6-1.6-6.3c-2.5-2.5-6.5-2.5-9,0c-1.7,1.7-2.2,4.1-1.6,6.3
		c0.3,1,0.8,1.9,1.6,2.7l4.5,4.5L441,252z"/>
</g>
<g>
	<polyline class="st3" points="277.9,222.1 284,216 290.1,222.1 	"/>
	<path class="st5" d="M288.5,224.7c0.8-0.8,1.3-1.7,1.6-2.7c0.6-2.2,0.1-4.6-1.6-6.3c-2.5-2.5-6.5-2.5-9,0c-1.7,1.7-2.2,4.1-1.6,6.3
		c0.3,1,0.8,1.9,1.6,2.7l4.5,4.5L288.5,224.7z"/>
</g>
<g>
	<path class="st6" d="M82.7,196.4c0.8-0.8,1.3-1.7,1.6-2.7c0.6-2.2,0.1-4.6-1.6-6.3c-2.5-2.5-6.5-2.5-9,0c-1.7,1.7-2.2,4.1-1.6,6.3
		c0.3,1,0.8,1.9,1.6,2.7l4.5,4.5L82.7,196.4z"/>
</g>
<g>
	<path class="st7" d="M80.3,200.8c0.8-0.2,1.6-0.3,2.4-0.4c0.8-0.1,1.6-0.2,2.4-0.3s1.6-0.4,2.4-0.2c0.8,0.1,1.6,0.3,2.4,0.9v0.2
		c-0.8,0.6-1.6,0.8-2.4,0.9c-0.8,0.2-1.6-0.1-2.4-0.2c-0.8-0.1-1.6-0.2-2.4-0.3s-1.6-0.2-2.4-0.4V200.8z"/>
</g>
<g>
	<line class="st8" x1="439.7" y1="244.5" x2="433.4" y2="250.9"/>
	<line class="st8" x1="439.7" y1="250.9" x2="433.4" y2="244.5"/>
</g>
<g>
	<line class="st8" x1="70.2" y1="170.3" x2="63.8" y2="176.6"/>
	<line class="st8" x1="70.2" y1="176.6" x2="63.8" y2="170.3"/>
</g>
<g>
	<line class="st8" x1="287.2" y1="272.4" x2="280.8" y2="278.8"/>
	<line class="st8" x1="287.2" y1="278.8" x2="280.8" y2="272.4"/>
</g>
<circle class="st8" cx="78.2" cy="192.1" r="3.8"/>
<polygon class="st9" points="280.3,222.2 284.1,215.9 287.8,222.2 287.8,222.2 "/>
<rect x="300.1" y="234.3" class="st10" width="5.9" height="5.9"/>
<rect x="457.7" y="134.3" class="st10" width="5.9" height="5.9"/>
<rect x="469.6" y="131.7" class="st10" width="5.9" height="5.9"/>
<rect x="45.1" y="20.6" class="st10" width="5.9" height="5.9"/>
<rect x="88.9" y="188.5" class="st10" width="5.9" height="5.9"/>
</svg>
