<?xml version="1.0" encoding="utf-8"?>
<!-- Generator: Adobe Illustrator 23.0.3, SVG Export Plug-In . SVG Version: 6.00 Build 0)  -->
<svg version="1.1" id="Layer_1" xmlns="http://www.w3.org/2000/svg" xmlns:xlink="http://www.w3.org/1999/xlink" x="0px" y="0px"
	 viewBox="0 0 17.7 18.4" style="enable-background:new 0 0 17.7 18.4;" xml:space="preserve">
<style type="text/css">
	.st0{fill:#4EBE99;stroke:#4EBE99;stroke-width:0.5535;stroke-miterlimit:10;}
	.st1{fill:#9E9E9E;stroke:#FFFFFF;stroke-width:0.5;stroke-miterlimit:10;}
	.st2{fill:none;stroke:#F5F6F6;stroke-width:0.801;stroke-miterlimit:10;}
</style>
<g>
	<g>
		<polyline class="st0" points="2.1,9.7 8.8,2.9 15.6,9.7 		"/>
		<path class="st0" d="M13.8,12.6c0.9-0.9,1.4-1.9,1.8-3c0.7-2.4,0.1-5.1-1.8-7c-2.7-2.7-7.2-2.7-9.9,0C2,4.5,1.4,7.2,2.1,9.6
			c0.3,1.1,0.9,2.1,1.8,3l5,5L13.8,12.6z"/>
	</g>
	<g>
		<path class="st1" d="M13.3,12.3c0.8-0.8,1.3-1.7,1.6-2.7C15.5,7.4,15,5,13.3,3.3c-2.5-2.5-6.5-2.5-9,0C2.6,5,2.1,7.4,2.7,9.6
			c0.3,1,0.8,1.9,1.6,2.7l4.5,4.5L13.3,12.3z"/>
	</g>
	<circle class="st2" cx="8.8" cy="8" r="3.8"/>
</g>
</svg>
